<svg xmlns="http://www.w3.org/2000/svg" xmlns:xlink="http://www.w3.org/1999/xlink" width="500" zoomAndPan="magnify" viewBox="0 0 375 374.999991" height="500" preserveAspectRatio="xMidYMid meet" version="1.0"><defs><clipPath id="id1"><path d="M 136 118 L 252 118 L 252 262.5 L 136 262.5 Z M 136 118 " clip-rule="nonzero"/></clipPath></defs><rect x="-37.5" width="450" fill="#ffffff" y="-37.499999" height="449.999989" fill-opacity="1"/><rect x="-37.5" width="450" fill="#ffffff" y="-37.499999" height="449.999989" fill-opacity="1"/><path fill="#425f97" d="M 187.515625 17.070312 L 357.976562 187.535156 L 187.511719 357.996094 L 17.050781 187.527344 Z M 187.515625 17.070312 " fill-opacity="1" fill-rule="nonzero"/><path fill="#425f97" d="M 187.5 375 L 0 187.5 L 187.5 0 L 375 187.5 Z M 2.386719 187.5 L 187.5 372.613281 L 372.613281 187.5 L 187.5 2.386719 Z M 2.386719 187.5 " fill-opacity="1" fill-rule="nonzero"/><path fill="#ffffff" d="M 137.863281 201.660156 C 136.84375 198.777344 135.488281 193.515625 140.441406 185.722656 C 145.398438 177.921875 144.8125 169.785156 143.523438 169.816406 C 142.222656 169.847656 140.023438 180.109375 132.222656 188.519531 C 114.730469 207.410156 131.882812 207.136719 139.558594 210.578125 C 139.558594 207.96875 138.882812 204.539062 137.863281 201.660156 Z M 137.863281 201.660156 " fill-opacity="1" fill-rule="nonzero"/><g clip-path="url(#id1)"><path fill="#ffffff" d="M 229.179688 126.953125 C 204.199219 112.464844 166.046875 116.109375 147.933594 147.253906 C 144.667969 152.855469 142.484375 157.808594 141.25 162.386719 C 140.75 164.234375 141.839844 166.128906 143.6875 166.628906 C 145.539062 167.140625 147.433594 166.035156 147.921875 164.191406 C 149 160.207031 150.957031 155.800781 153.914062 150.730469 C 169.878906 123.273438 203.609375 120.113281 225.703125 132.933594 C 252.085938 148.242188 245.421875 174.921875 241.007812 192.574219 L 240.382812 195.070312 C 239.171875 200.011719 236.171875 206.621094 233.277344 213.015625 C 229.066406 222.335938 225.078125 231.132812 225.078125 237.339844 C 225.078125 243.722656 226.875 250.972656 228.253906 255.574219 L 179.746094 255.574219 C 178.972656 252.859375 177.703125 248.210938 176.691406 243.441406 C 176.191406 241.0625 174.859375 239.867188 173.820312 239.277344 C 170.925781 237.632812 167.472656 238.832031 163.46875 240.214844 C 159.402344 241.621094 154.765625 243.214844 151.628906 241.515625 C 149.144531 240.171875 145.804688 233.03125 143.871094 217.027344 C 143.644531 215.136719 141.933594 213.761719 140.023438 214.007812 C 138.128906 214.238281 136.777344 215.960938 137.007812 217.855469 C 140.050781 243.117188 146.285156 246.492188 148.328125 247.597656 C 154.160156 250.761719 160.851562 248.445312 165.730469 246.753906 C 167.070312 246.292969 168.957031 245.636719 170.042969 245.453125 C 171.65625 252.9375 173.753906 259.765625 173.851562 260.058594 L 174.617188 262.496094 L 237.992188 262.496094 L 236.265625 257.839844 C 236.21875 257.722656 232.003906 246.203125 232.003906 237.34375 C 232.003906 232.628906 235.859375 224.113281 239.589844 215.871094 C 242.613281 209.195312 245.734375 202.285156 247.105469 196.722656 L 247.722656 194.257812 C 252.035156 177 260.0625 144.875 229.179688 126.953125 Z M 229.179688 126.953125 " fill-opacity="1" fill-rule="nonzero"/></g><path fill="#ffffff" d="M 212.097656 200.21875 C 210.253906 201.445312 213.472656 210.191406 221.742188 203.476562 C 230.015625 196.761719 235.519531 176.386719 226.335938 170.84375 C 217.144531 165.296875 210.039062 173.78125 210.25 174.449219 C 210.46875 175.117188 221.40625 176.15625 219.503906 186.949219 C 217.59375 197.738281 212.953125 199.648438 212.097656 200.21875 Z M 212.097656 200.21875 " fill-opacity="1" fill-rule="nonzero"/><path fill="#ffffff" d="M 148.878906 212.507812 C 149.679688 215.941406 149.414062 218.660156 150.425781 219.265625 C 152.441406 220.480469 186.421875 218.34375 194.523438 254.386719 L 200.59375 254.386719 C 200.59375 254.386719 199.628906 239.871094 191.035156 226.519531 C 187.105469 220.40625 173.714844 203.695312 147.019531 204.628906 C 146.191406 204.664062 148.09375 209.082031 148.878906 212.507812 Z M 148.878906 212.507812 " fill-opacity="1" fill-rule="nonzero"/></svg>