<svg xmlns="http://www.w3.org/2000/svg" xmlns:xlink="http://www.w3.org/1999/xlink" width="500" zoomAndPan="magnify" viewBox="0 0 375 374.999991" height="500" preserveAspectRatio="xMidYMid meet" version="1.0"><defs><clipPath id="id1"><path d="M 162 105.132812 L 225 105.132812 L 225 270.132812 L 162 270.132812 Z M 162 105.132812 " clip-rule="nonzero"/></clipPath><clipPath id="id2"><path d="M 143.742188 145 L 149 145 L 149 221 L 143.742188 221 Z M 143.742188 145 " clip-rule="nonzero"/></clipPath><clipPath id="id3"><path d="M 219 220 L 231.492188 220 L 231.492188 226 L 219 226 Z M 219 220 " clip-rule="nonzero"/></clipPath></defs><rect x="-37.5" width="450" fill="#ffffff" y="-37.499999" height="449.999989" fill-opacity="1"/><rect x="-37.5" width="450" fill="#ffffff" y="-37.499999" height="449.999989" fill-opacity="1"/><path fill="#425f97" d="M 187.515625 17.070312 L 357.976562 187.535156 L 187.511719 357.996094 L 17.050781 187.527344 Z M 187.515625 17.070312 " fill-opacity="1" fill-rule="nonzero"/><path fill="#425f97" d="M 187.5 375 L 0 187.5 L 187.5 0 L 375 187.5 Z M 2.386719 187.5 L 187.5 372.613281 L 372.613281 187.5 L 187.5 2.386719 Z M 2.386719 187.5 " fill-opacity="1" fill-rule="nonzero"/><g clip-path="url(#id1)"><path fill="#ffffff" d="M 223.105469 200.265625 C 224.136719 198.460938 224.394531 196.269531 223.621094 194.078125 C 223.492188 193.820312 223.363281 193.5625 223.234375 193.304688 L 213.554688 181.449219 C 212.523438 180.160156 211.492188 179 211.363281 177.710938 C 211.234375 176.292969 212.007812 174.230469 212.78125 172.554688 L 212.78125 172.425781 C 213.8125 169.847656 214.71875 165.207031 214.203125 161.855469 C 212.523438 148.320312 204.136719 115.839844 165.421875 105.53125 C 164.003906 105.144531 162.582031 105.917969 162.324219 107.335938 C 161.9375 108.753906 162.710938 110.171875 164.132812 110.429688 C 199.878906 119.964844 207.621094 149.996094 209.296875 162.371094 C 209.554688 164.820312 209.039062 168.558594 208.265625 170.363281 L 208.136719 170.492188 C 207.234375 172.554688 206.070312 175.519531 206.328125 178.226562 C 206.585938 180.933594 208.265625 182.996094 209.683594 184.671875 C 209.683594 184.671875 217.6875 194.464844 217.6875 194.464844 C 218.460938 195.367188 219.492188 196.269531 218.71875 197.558594 C 217.945312 198.847656 215.878906 199.621094 215.105469 199.75 L 209.039062 200.78125 C 207.75 200.910156 206.847656 202.070312 206.847656 203.359375 L 206.847656 208.902344 C 206.847656 209.675781 207.105469 210.320312 207.621094 210.835938 L 209.167969 212.253906 C 208.78125 212.898438 206.585938 213.800781 204.78125 214.1875 C 204.78125 214.1875 204.652344 214.1875 204.652344 214.1875 C 200.523438 215.21875 198.199219 217.28125 197.941406 217.539062 C 197.296875 218.183594 197.039062 219.085938 197.167969 219.988281 C 198.070312 223.851562 202.84375 226.300781 203.878906 226.6875 C 204.007812 226.6875 206.328125 227.976562 206.457031 228.105469 C 203.363281 230.167969 203.621094 234.164062 203.75 236.613281 C 203.75 237.386719 203.878906 238.03125 203.75 238.546875 C 203.621094 241.253906 202.199219 243.316406 199.878906 244.992188 C 196.78125 247.054688 186.070312 247.570312 178.328125 245.894531 C 176.003906 245.378906 173.292969 246.28125 170.972656 248.085938 C 168.390625 250.148438 166.972656 253.113281 166.972656 256.464844 L 166.972656 267.546875 C 166.972656 268.964844 168.132812 270.125 169.550781 270.125 C 170.972656 270.125 172.132812 268.964844 172.132812 267.546875 L 172.132812 256.464844 C 172.132812 254.144531 173.292969 252.726562 174.199219 251.953125 C 175.488281 250.921875 176.777344 250.792969 177.292969 250.792969 C 184.519531 252.210938 197.425781 252.46875 202.585938 249.117188 C 206.328125 246.667969 208.523438 243.058594 208.78125 238.804688 C 208.78125 237.902344 208.78125 237 208.78125 236.226562 C 208.652344 233.132812 208.78125 232.359375 209.683594 231.972656 C 210.328125 231.714844 210.847656 231.328125 211.105469 230.683594 C 211.621094 229.652344 211.878906 227.71875 211.105469 225.914062 C 210.199219 223.980469 208.523438 222.5625 205.8125 221.792969 C 204.910156 221.277344 203.878906 220.632812 203.105469 219.988281 C 203.75 219.601562 204.652344 219.214844 205.683594 218.957031 C 206.976562 218.699219 212.265625 217.539062 213.8125 214.058594 C 214.460938 212.511719 214.332031 210.707031 213.425781 209.160156 C 213.296875 208.902344 213.167969 208.773438 213.039062 208.644531 L 212.007812 207.613281 L 212.007812 205.421875 L 215.878906 204.90625 C 215.878906 204.90625 216.007812 204.90625 216.007812 204.90625 C 216.523438 204.90625 221.039062 203.875 223.105469 200.265625 Z M 223.105469 200.265625 " fill-opacity="1" fill-rule="nonzero"/></g><path fill="#ffffff" d="M 156.648438 117 C 155.226562 117 154.066406 118.160156 154.066406 119.578125 L 154.066406 191.757812 C 154.066406 193.175781 155.226562 194.335938 156.648438 194.335938 C 158.066406 194.335938 159.230469 193.175781 159.230469 191.757812 L 159.230469 119.578125 C 159.230469 118.160156 158.066406 117 156.648438 117 Z M 156.648438 117 " fill-opacity="1" fill-rule="nonzero"/><g clip-path="url(#id2)"><path fill="#ffffff" d="M 146.324219 145.359375 C 144.90625 145.359375 143.742188 146.519531 143.742188 147.9375 L 143.742188 217.539062 C 143.742188 218.957031 144.90625 220.117188 146.324219 220.117188 C 147.742188 220.117188 148.90625 218.957031 148.90625 217.539062 L 148.90625 147.9375 C 148.90625 146.519531 147.742188 145.359375 146.324219 145.359375 Z M 146.324219 145.359375 " fill-opacity="1" fill-rule="nonzero"/></g><path fill="#ffffff" d="M 169.550781 169.847656 L 169.550781 133.757812 C 169.550781 132.339844 168.390625 131.179688 166.972656 131.179688 C 165.550781 131.179688 164.390625 132.339844 164.390625 133.757812 L 164.390625 169.847656 C 164.390625 171.265625 165.550781 172.425781 166.972656 172.425781 C 168.390625 172.425781 169.550781 171.265625 169.550781 169.847656 Z M 169.550781 169.847656 " fill-opacity="1" fill-rule="nonzero"/><g clip-path="url(#id3)"><path fill="#ffffff" d="M 228.914062 220.117188 L 221.816406 220.117188 C 220.394531 220.117188 219.234375 221.277344 219.234375 222.691406 C 219.234375 224.109375 220.394531 225.269531 221.816406 225.269531 L 228.914062 225.269531 C 230.332031 225.269531 231.492188 224.109375 231.492188 222.691406 C 231.492188 221.277344 230.332031 220.117188 228.914062 220.117188 Z M 228.914062 220.117188 " fill-opacity="1" fill-rule="nonzero"/></g><path fill="#ffffff" d="M 219.234375 213.671875 C 218.332031 214.703125 218.332031 216.378906 219.492188 217.28125 C 220.523438 218.183594 222.203125 218.183594 223.105469 217.023438 L 226.71875 213.027344 C 227.621094 211.996094 227.621094 210.320312 226.460938 209.417969 C 225.429688 208.515625 223.75 208.515625 222.847656 209.675781 Z M 219.234375 213.671875 " fill-opacity="1" fill-rule="nonzero"/><path fill="#ffffff" d="M 223.105469 228.878906 C 222.203125 227.847656 220.523438 227.71875 219.492188 228.621094 C 218.460938 229.523438 218.332031 231.199219 219.234375 232.230469 L 222.847656 236.226562 C 223.75 237.257812 225.429688 237.386719 226.460938 236.484375 C 227.492188 235.582031 227.621094 233.90625 226.71875 232.875 Z M 223.105469 228.878906 " fill-opacity="1" fill-rule="nonzero"/></svg>