<svg xmlns="http://www.w3.org/2000/svg" xmlns:xlink="http://www.w3.org/1999/xlink" width="500" zoomAndPan="magnify" viewBox="0 0 375 374.999991" height="500" preserveAspectRatio="xMidYMid meet" version="1.0"><defs><clipPath id="id1"><path d="M 135 112.5 L 239.890625 112.5 L 239.890625 262.5 L 135 262.5 Z M 135 112.5 " clip-rule="nonzero"/></clipPath></defs><rect x="-37.5" width="450" fill="#ffffff" y="-37.499999" height="449.999989" fill-opacity="1"/><rect x="-37.5" width="450" fill="#ffffff" y="-37.499999" height="449.999989" fill-opacity="1"/><path fill="#425f97" d="M 187.515625 17.070312 L 357.976562 187.535156 L 187.511719 357.996094 L 17.050781 187.527344 Z M 187.515625 17.070312 " fill-opacity="1" fill-rule="nonzero"/><path fill="#425f97" d="M 187.5 375 L 0 187.5 L 187.5 0 L 375 187.5 Z M 2.386719 187.5 L 187.5 372.613281 L 372.613281 187.5 L 187.5 2.386719 Z M 2.386719 187.5 " fill-opacity="1" fill-rule="nonzero"/><g clip-path="url(#id1)"><path fill="#ffffff" d="M 167.40625 151.691406 L 167.359375 151.730469 C 166.414062 152.511719 165.589844 153.410156 165.03125 154.488281 C 164.648438 155.234375 164.390625 156.285156 164.3125 157.347656 C 164.238281 158.378906 164.332031 159.421875 164.683594 160.183594 C 164.914062 160.683594 165.417969 160.996094 165.960938 161.132812 C 166.515625 161.269531 167.125 161.222656 167.578125 160.921875 C 167.996094 160.644531 168.210938 160.148438 168.359375 159.609375 C 168.628906 158.632812 168.632812 157.484375 168.667969 156.679688 C 168.699219 155.910156 168.707031 155.105469 168.597656 154.328125 C 168.527344 153.847656 168.40625 153.375 168.210938 152.933594 C 168.011719 152.492188 167.734375 152.078125 167.40625 151.691406 Z M 200.441406 168.675781 C 199.941406 168.621094 199.3125 168.726562 198.632812 168.90625 C 197.835938 169.121094 196.96875 169.441406 196.164062 169.773438 C 195.203125 170.167969 194.332031 170.578125 193.722656 170.785156 C 192.230469 171.292969 190.710938 171.707031 189.171875 172.070312 C 185.609375 172.917969 181.964844 173.5 178.425781 174.371094 C 177.707031 174.550781 176.992188 174.738281 176.28125 174.929688 C 175.210938 175.222656 174.148438 175.527344 173.078125 175.832031 C 172.710938 175.9375 172.066406 176.140625 171.546875 176.113281 C 171.332031 176.101562 171.136719 176.054688 170.96875 175.964844 C 169.753906 177.070312 169.0625 177.855469 168.792969 178.398438 C 168.703125 178.585938 168.621094 178.699219 168.726562 178.765625 C 168.898438 178.878906 169.207031 178.878906 169.613281 178.84375 C 170.277344 178.792969 171.164062 178.597656 172.179688 178.3125 C 177.007812 176.972656 184.75 173.644531 186.703125 173.09375 C 187.726562 172.820312 190 172.152344 192.429688 171.40625 C 195.429688 170.480469 198.667969 169.433594 200.070312 168.847656 C 200.210938 168.789062 200.339844 168.730469 200.441406 168.675781 Z M 155.25 196.503906 C 154.113281 196.453125 152.289062 196.222656 150.363281 195.878906 C 148.398438 195.53125 146.339844 195.039062 144.773438 194.847656 C 143.96875 194.75 143.3125 194.707031 142.882812 194.785156 C 142.789062 194.800781 142.707031 194.816406 142.644531 194.847656 C 142.625 194.859375 142.597656 194.855469 142.605469 194.875 C 142.980469 196.164062 144.03125 197.058594 144.679688 198.179688 C 145.121094 198.460938 145.617188 198.757812 146.136719 198.996094 C 146.824219 199.316406 147.546875 199.5625 148.230469 199.507812 C 149.472656 199.390625 150.746094 199.089844 151.898438 198.652344 C 152.398438 198.460938 152.871094 198.246094 153.308594 198.019531 C 154.132812 197.589844 154.777344 196.949219 155.25 196.503906 Z M 232.640625 200.453125 C 231.78125 198.164062 230.515625 196.035156 228.9375 194.109375 C 224.433594 188.609375 217.425781 184.710938 210.148438 183.355469 C 207.113281 182.789062 203.398438 182.195312 200.039062 182.707031 C 197.847656 183.039062 195.808594 183.84375 194.246094 185.472656 C 192.726562 187.054688 191.792969 189.253906 191.21875 191.640625 C 190.351562 195.222656 190.296875 199.226562 190.382812 202.3125 C 190.441406 204.269531 190.773438 206.175781 191.378906 207.992188 C 191.980469 209.804688 192.855469 211.53125 193.992188 213.128906 C 194.898438 214.402344 195.96875 215.5625 197.148438 216.601562 C 198.328125 217.644531 199.621094 218.570312 200.960938 219.378906 C 209.351562 224.398438 215.671875 223.472656 220.605469 219.539062 C 225.917969 215.308594 229.640625 207.722656 232.640625 200.453125 Z M 146.609375 230.234375 C 146.910156 229.71875 147.300781 229.199219 147.769531 228.695312 C 147.996094 228.449219 148.238281 228.230469 148.488281 228.019531 C 149.445312 227.183594 150.578125 226.535156 151.828125 226.058594 C 154.070312 225.207031 156.628906 224.824219 158.78125 224.386719 C 159.804688 224.1875 160.769531 223.828125 161.730469 223.460938 C 162.730469 223.082031 163.726562 222.691406 164.75 222.386719 C 165.640625 222.117188 166.554688 221.917969 167.515625 221.863281 C 168.765625 221.792969 170.027344 221.855469 171.277344 222.019531 C 172.519531 222.179688 173.746094 222.445312 174.941406 222.773438 C 175.757812 222.996094 176.578125 223.328125 177.410156 223.550781 C 177.761719 223.644531 178.117188 223.714844 178.472656 223.75 C 179.359375 223.835938 180.136719 223.847656 180.710938 223.535156 C 180.808594 223.480469 180.898438 223.417969 180.984375 223.34375 C 181.046875 223.046875 181.070312 222.730469 181.054688 222.390625 C 181.035156 222 180.832031 221.722656 180.5625 221.507812 C 180.03125 221.082031 179.265625 220.859375 178.652344 220.644531 C 177.457031 220.226562 176.238281 219.902344 175.011719 219.625 C 173.140625 219.199219 171.242188 218.882812 169.355469 218.507812 C 167.664062 218.164062 165.9375 217.476562 164.246094 216.773438 C 163.152344 216.320312 162.074219 215.859375 161.023438 215.523438 C 160.335938 215.304688 159.660156 215.136719 159 215.058594 C 158.617188 215.015625 158.273438 215.070312 157.945312 215.183594 C 156.980469 215.515625 156.140625 216.238281 155.144531 216.589844 C 153.894531 217.035156 152.5 217.09375 151.195312 217.386719 C 150.675781 217.503906 150.175781 217.65625 149.707031 217.902344 C 148.820312 218.367188 148.167969 219.003906 147.640625 219.738281 C 147.042969 220.574219 146.605469 221.523438 146.191406 222.488281 C 146.164062 223.96875 146.25 225.449219 146.332031 226.949219 C 146.386719 227.914062 146.359375 227.964844 146.363281 228.152344 C 146.363281 228.285156 146.386719 228.488281 146.46875 229.1875 C 146.523438 229.582031 146.570312 229.925781 146.609375 230.234375 Z M 147.015625 233.460938 C 147.195312 233.84375 147.496094 234.175781 147.917969 234.4375 C 148.496094 234.800781 149.292969 235.019531 150.328125 235.097656 C 150.585938 235.121094 150.847656 235.128906 151.105469 235.144531 C 151.710938 235.183594 152.320312 235.214844 152.9375 235.203125 C 154.949219 235.148438 157.019531 234.765625 159.089844 234.179688 C 160.171875 233.875 161.257812 233.527344 162.328125 233.136719 C 163.402344 232.742188 164.46875 232.320312 165.503906 231.871094 C 167.722656 230.898438 169.816406 229.835938 171.757812 229.027344 C 173.605469 228.246094 176.65625 227.527344 178.800781 226.125 C 179.789062 225.484375 180.582031 224.691406 180.902344 223.648438 C 180.875 223.667969 180.84375 223.691406 180.808594 223.710938 C 180.214844 224.066406 179.394531 224.101562 178.449219 224.050781 C 178.074219 224.03125 177.699219 223.972656 177.328125 223.890625 C 176.488281 223.707031 175.65625 223.410156 174.832031 223.21875 C 173.648438 222.945312 172.433594 222.738281 171.210938 222.628906 C 169.996094 222.519531 168.777344 222.507812 167.574219 222.621094 C 166.675781 222.707031 165.832031 222.925781 165.011719 223.203125 C 164.015625 223.539062 163.054688 223.976562 162.070312 224.351562 C 161.058594 224.746094 160.027344 225.074219 158.941406 225.261719 C 156.808594 225.609375 154.269531 225.875 152.035156 226.636719 C 150.835938 227.046875 149.703125 227.578125 148.816406 228.390625 C 148.59375 228.59375 148.398438 228.824219 148.210938 229.070312 C 147.777344 229.625 147.441406 230.191406 147.199219 230.738281 C 147 231.191406 146.875 231.628906 146.824219 232.050781 C 146.863281 232.378906 146.902344 232.691406 146.953125 233.054688 C 146.972656 233.183594 146.992188 233.316406 147.015625 233.460938 Z M 165.195312 114.136719 C 164.519531 114.179688 163.855469 114.242188 163.195312 114.316406 C 160.679688 114.605469 158.269531 115.296875 155.972656 116.277344 C 153.65625 117.261719 151.457031 118.539062 149.382812 119.992188 C 147.890625 121.039062 146.484375 122.195312 145.1875 123.453125 C 143.886719 124.714844 142.695312 126.085938 141.617188 127.558594 C 137.347656 133.429688 135.996094 139.4375 136.816406 145.273438 C 137.644531 151.148438 140.664062 156.847656 145.074219 162.070312 C 146.539062 163.792969 148.253906 165.300781 149.476562 167.097656 C 150.335938 168.351562 150.957031 169.746094 151.109375 171.4375 C 151.449219 175.027344 149.1875 178.964844 146.664062 182.789062 C 144.253906 186.433594 141.59375 189.964844 141.085938 192.96875 C 140.816406 194.554688 141.265625 195.957031 142.871094 197.09375 C 142.972656 197.132812 143.09375 197.191406 143.234375 197.265625 C 142.722656 196.585938 142.207031 195.902344 141.964844 195.0625 C 141.820312 194.601562 142.070312 194.253906 142.738281 194.089844 C 143.207031 193.972656 143.945312 193.949219 144.84375 193.988281 C 146.445312 194.0625 148.582031 194.28125 150.582031 194.621094 C 153.085938 195.042969 155.351562 195.628906 156.0625 195.539062 C 156.667969 195.464844 156.902344 195.753906 156.953125 195.964844 C 156.984375 196.09375 156.984375 196.277344 156.859375 196.480469 C 156.710938 196.714844 156.308594 197.085938 155.695312 197.492188 C 154.996094 197.957031 154.003906 198.46875 152.894531 198.996094 C 151.515625 199.652344 149.957031 200.320312 148.390625 200.621094 C 147.71875 200.757812 146.996094 200.683594 146.273438 200.511719 C 145.957031 200.433594 145.636719 200.335938 145.328125 200.222656 C 145.503906 201.675781 145.257812 203.160156 145.414062 204.613281 C 145.457031 205.023438 145.535156 205.433594 145.671875 205.835938 C 146.109375 207.148438 146.941406 207.800781 147.472656 208.917969 C 147.6875 209.367188 147.859375 209.890625 147.949219 210.542969 C 148.074219 211.425781 148.03125 212.3125 147.90625 213.191406 C 147.632812 215.121094 146.914062 217.035156 146.542969 218.914062 C 146.449219 219.402344 146.375 219.890625 146.324219 220.378906 C 146.515625 219.992188 146.726562 219.621094 146.964844 219.265625 C 147.535156 218.40625 148.265625 217.65625 149.265625 217.089844 C 149.796875 216.789062 150.371094 216.585938 150.964844 216.433594 C 152.21875 216.109375 153.566406 216.019531 154.761719 215.554688 C 155.753906 215.171875 156.574219 214.417969 157.535156 214.054688 C 158.027344 213.867188 158.550781 213.773438 159.128906 213.824219 C 159.867188 213.890625 160.625 214.054688 161.398438 214.277344 C 162.5 214.597656 163.628906 215.03125 164.769531 215.488281 C 166.386719 216.140625 168.019531 216.835938 169.628906 217.171875 C 171.523438 217.570312 173.425781 217.90625 175.304688 218.355469 C 176.578125 218.660156 177.835938 219.011719 179.074219 219.464844 C 179.804688 219.734375 180.710938 220.042969 181.335938 220.570312 C 181.851562 221.011719 182.199219 221.582031 182.210938 222.355469 C 182.234375 223.976562 181.539062 225.203125 180.433594 226.160156 C 178.21875 228.070312 174.28125 228.828125 172.019531 229.691406 C 170.410156 230.308594 168.667969 231.054688 166.867188 231.851562 C 166.144531 232.171875 165.410156 232.492188 164.671875 232.828125 C 162.214844 233.941406 159.699219 235.066406 157.167969 235.785156 C 155.046875 236.386719 152.925781 236.800781 150.867188 236.644531 C 150.628906 236.628906 150.390625 236.589844 150.152344 236.550781 C 148.976562 236.355469 148.066406 236.011719 147.398438 235.554688 C 148.140625 238.960938 150.222656 245.988281 152.855469 251.820312 C 154.152344 254.695312 155.582031 257.285156 157.058594 258.980469 C 157.917969 259.972656 158.777344 260.660156 159.644531 260.84375 C 162.136719 261.371094 165.449219 260.535156 168.84375 259.234375 C 173.800781 257.324219 178.917969 254.382812 182.007812 252.824219 C 186.339844 250.628906 191.199219 248.429688 196.144531 246.011719 C 203.078125 242.621094 210.195312 238.824219 216.410156 234.273438 C 223.621094 228.996094 229.59375 222.664062 232.519531 214.609375 C 234.097656 210.332031 234.234375 206.273438 233.304688 202.582031 C 230.226562 209.492188 226.445312 216.46875 221.320312 220.449219 C 216.03125 224.5625 209.324219 225.601562 200.46875 220.191406 C 199.085938 219.351562 197.753906 218.386719 196.53125 217.300781 C 195.300781 216.214844 194.179688 215.003906 193.230469 213.675781 C 192.027344 212.007812 191.105469 210.203125 190.460938 208.300781 C 189.816406 206.398438 189.453125 204.398438 189.382812 202.347656 C 189.265625 199.175781 189.296875 195.066406 190.152344 191.386719 C 190.753906 188.789062 191.769531 186.402344 193.402344 184.667969 C 195.136719 182.828125 197.398438 181.886719 199.847656 181.492188 C 203.34375 180.929688 207.21875 181.496094 210.386719 182.054688 C 218 183.410156 225.375 187.417969 230.089844 193.164062 C 231.441406 194.808594 232.570312 196.59375 233.433594 198.5 C 234.40625 196.070312 235.304688 193.71875 236.167969 191.582031 C 236.683594 190.296875 237.066406 187.6875 237.355469 184.867188 C 237.71875 181.375 237.917969 177.550781 237.980469 175.398438 C 236.328125 175.382812 234.730469 174.851562 233.207031 173.875 C 231.097656 172.527344 229.105469 170.34375 227.269531 167.648438 C 226.785156 166.941406 226.316406 166.191406 225.847656 165.425781 C 224.097656 162.59375 222.414062 159.417969 220.894531 156.191406 C 219.453125 153.128906 218.140625 150.039062 216.949219 147.234375 C 215.386719 143.5625 214.035156 140.382812 212.957031 138.375 C 208.59375 130.277344 200.59375 123.742188 191.449219 119.5 C 187.917969 117.863281 184.210938 116.570312 180.476562 115.652344 C 177.90625 115.015625 175.320312 114.558594 172.765625 114.300781 C 172.613281 114.390625 172.433594 114.441406 172.242188 114.433594 C 169.472656 114.265625 166.558594 115.066406 163.984375 116.484375 C 161.351562 117.9375 159.066406 120.019531 157.621094 122.371094 C 157.042969 123.324219 156.605469 124.347656 156.304688 125.40625 C 156 126.484375 155.832031 127.601562 155.746094 128.71875 C 155.710938 129.648438 155.742188 130.382812 155.871094 131.105469 C 156.050781 132.117188 156.410156 133.074219 156.882812 134.476562 C 156.902344 134.523438 156.917969 134.574219 156.933594 134.625 L 156.933594 134.632812 C 157.28125 136.136719 157.660156 137.640625 158.21875 139.070312 C 158.578125 139.992188 159.011719 140.886719 159.566406 141.726562 C 160.273438 142.800781 161.089844 143.78125 161.976562 144.691406 C 162.875 145.621094 163.851562 146.480469 164.855469 147.308594 C 165.777344 148.0625 166.886719 148.875 167.828125 149.800781 C 169.0625 148.976562 170.390625 148.28125 171.621094 147.628906 C 176.300781 145.140625 181.375 144.136719 186.453125 144.308594 C 191.492188 144.476562 196.539062 145.808594 201.195312 148.046875 C 202.75 148.792969 205.375 150.070312 207.550781 151.550781 C 209.191406 152.671875 210.566406 153.925781 211.140625 155.148438 C 211.800781 156.550781 211.382812 157.597656 210.617188 158.136719 C 209.894531 158.644531 208.746094 158.726562 207.644531 158.109375 C 207.191406 157.851562 206.753906 157.558594 206.335938 157.25 C 205.410156 156.570312 204.542969 155.789062 203.625 155.109375 C 202.566406 154.328125 201.429688 153.625 200.242188 153.019531 C 199.058594 152.414062 197.824219 151.90625 196.570312 151.515625 C 192.898438 150.355469 187.761719 150.746094 183.070312 152.292969 C 178.394531 153.835938 174.140625 156.53125 172.277344 160.136719 C 171.871094 160.925781 171.605469 161.757812 171.429688 162.617188 C 171.15625 163.949219 171.097656 165.332031 171.085938 166.683594 C 171.078125 167.550781 171.09375 168.417969 171.121094 169.285156 C 171.164062 170.589844 171.234375 171.902344 171.296875 173.207031 C 171.308594 173.519531 171.257812 174.042969 171.292969 174.511719 C 171.308594 174.71875 171.3125 174.921875 171.417969 175.035156 C 171.523438 175.15625 171.722656 175.117188 171.917969 175.09375 C 172.257812 175.054688 172.601562 174.953125 172.828125 174.894531 C 173.910156 174.625 174.988281 174.351562 176.070312 174.09375 C 176.792969 173.921875 177.519531 173.757812 178.246094 173.601562 C 181.820312 172.84375 185.484375 172.386719 189.078125 171.648438 C 190.617188 171.332031 192.136719 170.964844 193.632812 170.503906 C 194.238281 170.3125 195.121094 169.945312 196.074219 169.550781 C 196.886719 169.214844 197.75 168.859375 198.550781 168.625 C 199.449219 168.355469 200.273438 168.238281 200.859375 168.398438 C 201.070312 168.457031 201.085938 168.582031 201 168.726562 C 200.972656 168.773438 200.902344 168.84375 200.777344 168.917969 C 200.410156 169.140625 199.484375 169.527344 198.269531 169.988281 C 194.753906 171.328125 188.777344 173.320312 186.921875 173.875 C 184.96875 174.425781 177.222656 177.75 172.394531 179.082031 C 171.089844 179.441406 169.988281 179.652344 169.253906 179.648438 C 168.832031 179.644531 168.507812 179.5625 168.300781 179.425781 C 168.003906 179.230469 167.859375 178.9375 167.933594 178.519531 C 167.988281 178.195312 168.21875 177.75 168.6875 177.179688 C 169.082031 176.699219 169.65625 176.113281 170.4375 175.40625 C 170.363281 175.246094 170.308594 175.066406 170.273438 174.867188 C 170.171875 174.328125 170.222656 173.652344 170.195312 173.269531 C 170.109375 171.957031 170.011719 170.644531 169.953125 169.328125 C 169.910156 168.449219 169.886719 167.5625 169.882812 166.683594 C 169.878906 165.25 169.925781 163.785156 170.199219 162.371094 C 170.386719 161.398438 170.679688 160.449219 171.128906 159.550781 C 173.09375 155.648438 177.597656 152.625 182.621094 150.933594 C 187.609375 149.253906 193.089844 148.886719 197.007812 150.117188 C 198.339844 150.539062 199.644531 151.085938 200.898438 151.738281 C 202.152344 152.386719 203.351562 153.136719 204.464844 153.972656 C 205.382812 154.65625 206.242188 155.441406 207.164062 156.132812 C 207.535156 156.410156 207.917969 156.671875 208.324219 156.902344 C 208.882812 157.222656 209.464844 157.273438 209.835938 157.015625 C 210.164062 156.789062 210.199219 156.324219 209.921875 155.71875 C 209.433594 154.660156 208.214844 153.613281 206.804688 152.640625 C 204.699219 151.183594 202.148438 149.929688 200.640625 149.191406 C 196.152344 147.007812 191.285156 145.675781 186.410156 145.5 C 181.542969 145.328125 176.675781 146.3125 172.199219 148.714844 C 171.0625 149.328125 169.835938 149.980469 168.691406 150.746094 C 169.082031 151.234375 169.410156 151.753906 169.648438 152.304688 C 169.894531 152.878906 170.046875 153.488281 170.128906 154.113281 C 170.242188 154.988281 170.226562 155.886719 170.179688 156.75 C 170.132812 157.648438 170.097656 158.925781 169.78125 160.015625 C 169.523438 160.910156 169.078125 161.683594 168.371094 162.140625 C 167.589844 162.644531 166.550781 162.761719 165.609375 162.515625 C 164.652344 162.261719 163.808594 161.648438 163.414062 160.761719 C 162.988281 159.808594 162.855469 158.519531 162.960938 157.238281 C 163.066406 155.988281 163.398438 154.75 163.867188 153.875 C 164.507812 152.660156 165.4375 151.648438 166.511719 150.769531 C 165.636719 149.972656 164.644531 149.269531 163.8125 148.601562 C 162.746094 147.75 161.710938 146.859375 160.753906 145.898438 C 159.777344 144.921875 158.878906 143.871094 158.09375 142.714844 C 157.457031 141.777344 156.949219 140.78125 156.53125 139.75 C 155.917969 138.246094 155.488281 136.664062 155.101562 135.078125 L 155.101562 135.066406 C 155.085938 135.015625 155.078125 134.960938 155.078125 134.90625 C 154.953125 134.101562 154.855469 133.433594 154.769531 132.816406 C 154.695312 132.265625 154.636719 131.761719 154.601562 131.253906 C 154.550781 130.457031 154.546875 129.648438 154.664062 128.640625 C 154.753906 127.445312 154.945312 126.265625 155.253906 125.117188 C 155.566406 123.953125 155.996094 122.824219 156.601562 121.769531 C 158.070312 119.175781 160.453125 116.847656 163.230469 115.175781 C 163.867188 114.792969 164.523438 114.445312 165.195312 114.136719 Z M 170.570312 112.625 C 171.15625 112.5625 171.738281 112.535156 172.316406 112.546875 C 172.539062 112.554688 172.742188 112.644531 172.902344 112.78125 C 175.539062 113.019531 178.203125 113.472656 180.851562 114.121094 C 184.683594 115.0625 188.476562 116.425781 192.085938 118.144531 C 201.453125 122.59375 209.574219 129.457031 213.960938 137.839844 C 215.03125 139.875 216.34375 143.113281 217.90625 146.828125 C 219.082031 149.625 220.402344 152.695312 221.847656 155.738281 C 223.355469 158.921875 224.964844 162.089844 226.765625 164.839844 C 227.242188 165.574219 227.746094 166.269531 228.253906 166.9375 C 229.75 168.921875 231.316406 170.59375 232.945312 171.777344 C 234.808594 173.132812 236.746094 173.820312 238.757812 173.472656 C 238.789062 173.464844 238.816406 173.460938 238.847656 173.457031 L 238.878906 173.457031 L 238.886719 173.453125 L 238.910156 173.453125 C 238.992188 173.449219 239.070312 173.457031 239.144531 173.472656 L 239.148438 173.476562 L 239.160156 173.476562 L 239.171875 173.480469 L 239.175781 173.480469 C 239.324219 173.519531 239.453125 173.589844 239.5625 173.683594 C 239.675781 173.78125 239.761719 173.902344 239.820312 174.042969 L 239.820312 174.046875 L 239.824219 174.058594 L 239.828125 174.066406 L 239.828125 174.070312 L 239.832031 174.074219 C 239.855469 174.144531 239.875 174.222656 239.882812 174.300781 L 239.882812 174.304688 L 239.886719 174.316406 L 239.886719 174.363281 C 239.890625 174.390625 239.890625 174.410156 239.886719 174.4375 C 239.84375 176.21875 239.566406 180.871094 239.066406 185.058594 C 238.710938 188.0625 238.230469 190.832031 237.65625 192.199219 C 236.59375 194.738281 235.464844 197.578125 234.21875 200.480469 C 235.714844 204.890625 235.777344 209.84375 233.816406 215.089844 C 230.691406 223.328125 224.484375 229.765625 217.011719 235.105469 C 210.699219 239.613281 203.472656 243.316406 196.488281 246.71875 C 191.546875 249.128906 186.734375 251.40625 182.421875 253.632812 C 178.839844 255.5 172.554688 259.265625 166.917969 261.128906 C 164.132812 262.046875 161.5 262.488281 159.394531 262.078125 C 157.253906 261.664062 154.960938 258.921875 152.917969 255.191406 C 149.207031 248.40625 146.136719 238.421875 145.464844 235.003906 C 145.324219 234.292969 145.230469 233.773438 145.160156 233.328125 C 144.976562 232.203125 144.933594 231.554688 144.605469 229.476562 L 144.605469 229.460938 L 144.601562 229.453125 L 144.601562 229.429688 L 144.597656 229.421875 L 144.597656 229.402344 L 144.59375 229.386719 L 144.59375 229.351562 C 144.542969 228.535156 144.535156 228.296875 144.539062 228.144531 C 144.542969 227.964844 144.574219 227.917969 144.570312 227 C 144.566406 225.3125 144.5625 223.648438 144.707031 221.988281 C 144.804688 220.863281 144.964844 219.746094 145.238281 218.628906 C 145.6875 216.78125 146.503906 214.917969 146.847656 213.019531 C 146.992188 212.238281 147.050781 211.457031 146.964844 210.664062 C 146.910156 210.125 146.78125 209.6875 146.617188 209.308594 C 146.105469 208.152344 145.28125 207.453125 144.867188 206.09375 C 144.726562 205.628906 144.648438 205.160156 144.609375 204.691406 C 144.476562 203.105469 144.835938 201.496094 144.570312 199.917969 C 143.632812 199.507812 142.839844 199.054688 142.417969 198.921875 C 142.257812 198.90625 142.097656 198.855469 141.953125 198.757812 C 139.546875 197.039062 138.945312 194.96875 139.40625 192.65625 C 140.035156 189.496094 142.886719 185.808594 145.535156 182.019531 C 147.996094 178.503906 150.277344 174.894531 150.042969 171.527344 C 149.925781 170.027344 149.390625 168.785156 148.640625 167.664062 C 147.449219 165.890625 145.746094 164.414062 144.3125 162.71875 C 139.75 157.351562 136.648438 151.476562 135.773438 145.421875 C 134.890625 139.328125 136.253906 133.042969 140.6875 126.882812 C 141.792969 125.347656 143.019531 123.921875 144.355469 122.601562 C 145.6875 121.285156 147.132812 120.074219 148.667969 118.976562 C 150.792969 117.449219 153.058594 116.101562 155.445312 115.054688 C 157.847656 113.996094 160.378906 113.242188 163.023438 112.90625 C 165.464844 112.601562 167.996094 112.507812 170.570312 112.625 " fill-opacity="1" fill-rule="evenodd"/></g></svg>