<svg xmlns="http://www.w3.org/2000/svg" xmlns:xlink="http://www.w3.org/1999/xlink" width="500" zoomAndPan="magnify" viewBox="0 0 375 374.999991" height="500" preserveAspectRatio="xMidYMid meet" version="1.0"><defs><clipPath id="6d4e29a79b"><path d="M 113 113.53125 L 262 113.53125 L 262 261.28125 L 113 261.28125 Z M 113 113.53125 " clip-rule="nonzero"/></clipPath></defs><rect x="-37.5" width="450" fill="#ffffff" y="-37.499999" height="449.999989" fill-opacity="1"/><rect x="-37.5" width="450" fill="#ffffff" y="-37.499999" height="449.999989" fill-opacity="1"/><rect x="-37.5" width="450" fill="#ffffff" y="-37.499999" height="449.999989" fill-opacity="1"/><path fill="#425f97" d="M 187.515625 17.070312 L 357.976562 187.535156 L 187.511719 357.996094 L 17.050781 187.527344 Z M 187.515625 17.070312 " fill-opacity="1" fill-rule="nonzero"/><path fill="#425f97" d="M 187.5 375 L 0 187.5 L 187.5 0 L 375 187.5 Z M 2.386719 187.5 L 187.5 372.613281 L 372.613281 187.5 L 187.5 2.386719 Z M 2.386719 187.5 " fill-opacity="1" fill-rule="nonzero"/><g clip-path="url(#6d4e29a79b)"><path fill="#ffffff" d="M 246.285156 113.5625 C 244.101562 113.570312 241.964844 114.355469 240.34375 115.976562 L 233.640625 122.667969 C 233.257812 122.695312 232.871094 122.734375 232.503906 122.8125 C 231.902344 122.925781 231.316406 123.101562 230.746094 123.335938 C 230.421875 123.472656 230.101562 123.625 229.789062 123.792969 C 227.96875 122.902344 225.695312 123.199219 224.1875 124.699219 L 214.378906 134.492188 C 212.492188 136.375 212.492188 139.472656 214.378906 141.355469 L 216.121094 143.09375 L 196.835938 162.347656 C 195.390625 163.785156 194.660156 165.683594 194.660156 167.566406 C 194.660156 167.910156 194.683594 168.25 194.730469 168.585938 L 188.976562 174.332031 C 187.242188 176.054688 187.242188 178.910156 188.976562 180.640625 C 190.703125 182.371094 193.558594 182.371094 195.292969 180.640625 L 201.054688 174.894531 C 201.394531 174.933594 201.730469 174.964844 202.066406 174.964844 C 203.960938 174.964844 205.855469 174.226562 207.300781 172.792969 L 226.585938 153.539062 L 228.328125 155.277344 C 230.214844 157.152344 233.320312 157.152344 235.199219 155.277344 L 245.015625 145.484375 C 246.515625 143.984375 246.8125 141.714844 245.921875 139.894531 C 246.089844 139.582031 246.242188 139.261719 246.378906 138.933594 C 246.613281 138.371094 246.789062 137.789062 246.902344 137.1875 C 246.972656 136.808594 247.023438 136.433594 247.054688 136.046875 L 253.753906 129.363281 C 257.222656 125.898438 256.871094 120.128906 253.226562 116.496094 C 251.410156 114.675781 249.050781 113.683594 246.714844 113.570312 C 246.570312 113.570312 246.429688 113.5625 246.285156 113.5625 Z M 188.566406 141.019531 C 187.714844 141.035156 187.042969 141.730469 187.050781 142.582031 L 187.050781 143.535156 C 187.050781 144.394531 187.742188 145.082031 188.589844 145.082031 C 189.449219 145.082031 190.140625 144.394531 190.132812 143.535156 L 190.132812 142.582031 C 190.148438 141.714844 189.441406 141.011719 188.566406 141.019531 Z M 185.734375 144.867188 C 185.734375 144.867188 185.726562 144.867188 185.71875 144.867188 L 184.761719 144.867188 C 183.886719 144.839844 183.164062 145.539062 183.164062 146.40625 C 183.164062 147.277344 183.886719 147.976562 184.761719 147.945312 L 185.71875 147.945312 C 186.59375 147.976562 187.316406 147.277344 187.316406 146.414062 C 187.324219 145.546875 186.609375 144.847656 185.734375 144.867188 Z M 192.445312 144.867188 C 192.4375 144.867188 192.429688 144.867188 192.421875 144.867188 L 191.464844 144.867188 C 190.589844 144.839844 189.867188 145.539062 189.867188 146.40625 C 189.867188 147.277344 190.589844 147.976562 191.464844 147.945312 L 192.421875 147.945312 C 193.292969 147.976562 194.015625 147.277344 194.015625 146.414062 C 194.023438 145.546875 193.3125 144.847656 192.445312 144.867188 Z M 188.566406 147.710938 C 187.714844 147.726562 187.042969 148.425781 187.050781 149.273438 L 187.050781 150.226562 C 187.050781 151.085938 187.742188 151.773438 188.589844 151.773438 C 189.449219 151.773438 190.140625 151.085938 190.132812 150.226562 L 190.132812 149.273438 C 190.148438 148.410156 189.441406 147.703125 188.566406 147.710938 Z M 173.589844 161.617188 C 170.203125 161.617188 167.425781 164.390625 167.425781 167.773438 C 167.425781 171.148438 170.203125 173.921875 173.589844 173.921875 C 176.976562 173.921875 179.753906 171.148438 179.753906 167.773438 C 179.753906 164.390625 176.976562 161.617188 173.589844 161.617188 Z M 229.5 166.5 C 228.648438 166.515625 227.976562 167.214844 227.984375 168.0625 L 227.984375 169.019531 C 227.960938 169.890625 228.65625 170.605469 229.523438 170.605469 C 230.398438 170.605469 231.097656 169.890625 231.066406 169.019531 L 231.066406 168.0625 C 231.082031 167.199219 230.375 166.492188 229.5 166.5 Z M 225.695312 170.347656 C 224.835938 170.332031 224.132812 171.03125 224.132812 171.886719 C 224.132812 172.746094 224.835938 173.433594 225.695312 173.425781 L 226.652344 173.425781 C 227.511719 173.433594 228.214844 172.746094 228.214844 171.886719 C 228.214844 171.03125 227.511719 170.332031 226.652344 170.347656 Z M 232.398438 170.347656 C 231.539062 170.332031 230.832031 171.03125 230.832031 171.886719 C 230.832031 172.746094 231.539062 173.433594 232.398438 173.425781 L 233.359375 173.425781 C 234.21875 173.433594 234.925781 172.746094 234.925781 171.886719 C 234.925781 171.03125 234.21875 170.332031 233.359375 170.347656 Z M 229.5 173.195312 C 228.65625 173.203125 227.976562 173.90625 227.984375 174.75 L 227.984375 175.710938 C 227.960938 176.578125 228.65625 177.296875 229.523438 177.296875 C 230.398438 177.296875 231.097656 176.578125 231.066406 175.710938 L 231.066406 174.75 C 231.082031 173.882812 230.375 173.179688 229.5 173.195312 Z M 187.46875 183.34375 C 186.96875 183.359375 186.503906 183.605469 186.222656 184.023438 C 184.609375 186.429688 182.257812 190.140625 180.292969 194.132812 C 178.324219 198.117188 176.695312 202.332031 176.710938 206.058594 C 176.746094 212.527344 181.625 217.121094 187.5 217.121094 C 193.375 217.121094 198.285156 212.527344 198.285156 206.050781 C 198.285156 202.347656 196.699219 198.171875 194.753906 194.210938 C 192.804688 190.242188 190.460938 186.523438 188.785156 184.023438 C 188.488281 183.589844 187.996094 183.335938 187.46875 183.34375 Z M 115.675781 185.867188 C 113.636719 185.882812 113.636719 188.929688 115.675781 188.945312 L 178.527344 188.945312 C 179.378906 188.953125 180.074219 188.265625 180.074219 187.40625 C 180.074219 186.554688 179.378906 185.859375 178.527344 185.867188 Z M 196.480469 185.867188 C 194.433594 185.882812 194.433594 188.929688 196.480469 188.945312 L 259.324219 188.945312 C 260.183594 188.953125 260.882812 188.265625 260.882812 187.40625 C 260.882812 186.554688 260.183594 185.859375 259.324219 185.867188 Z M 115.097656 197.867188 C 113.394531 197.84375 112.914062 200.183594 114.488281 200.832031 C 114.488281 200.832031 116.125 201.53125 118.273438 202.21875 C 120.425781 202.917969 123.074219 203.636719 125.433594 203.636719 C 127.800781 203.636719 129.640625 202.84375 131.210938 202.171875 C 132.785156 201.5 134.101562 200.953125 135.78125 200.953125 C 137.457031 200.953125 138.773438 201.5 140.347656 202.171875 C 141.925781 202.84375 143.765625 203.636719 146.125 203.636719 C 148.484375 203.636719 150.324219 202.84375 151.902344 202.171875 C 153.476562 201.5 154.785156 200.953125 156.472656 200.953125 C 158.148438 200.953125 159.464844 201.5 161.039062 202.171875 C 162.609375 202.84375 164.449219 203.636719 166.816406 203.636719 C 169.175781 203.636719 171.015625 202.84375 172.585938 202.171875 C 173.40625 201.859375 173.800781 200.9375 173.453125 200.136719 C 173.109375 199.332031 172.171875 198.972656 171.382812 199.34375 C 169.800781 200.015625 168.492188 200.558594 166.816406 200.558594 C 165.132812 200.558594 163.824219 200.015625 162.25 199.34375 C 160.667969 198.675781 158.832031 197.875 156.472656 197.875 C 154.101562 197.875 152.265625 198.675781 150.691406 199.34375 C 149.117188 200.015625 147.804688 200.558594 146.125 200.558594 C 144.449219 200.558594 143.132812 200.015625 141.558594 199.34375 C 139.984375 198.675781 138.140625 197.875 135.78125 197.875 C 133.421875 197.875 131.582031 198.675781 130 199.34375 C 128.429688 200.015625 127.121094 200.558594 125.433594 200.558594 C 123.757812 200.558594 121.238281 199.941406 119.222656 199.292969 C 117.207031 198.644531 115.699219 198.003906 115.699219 198.003906 C 115.515625 197.914062 115.304688 197.867188 115.097656 197.859375 Z M 259.855469 197.875 C 259.671875 197.875 259.476562 197.921875 259.300781 197.996094 C 259.300781 197.996094 257.792969 198.644531 255.777344 199.292969 C 253.773438 199.941406 251.242188 200.558594 249.566406 200.558594 C 247.886719 200.558594 246.570312 200.007812 245 199.34375 C 243.425781 198.667969 241.589844 197.875 239.21875 197.875 C 236.859375 197.875 235.023438 198.667969 233.441406 199.34375 C 231.867188 200.015625 230.550781 200.558594 228.875 200.558594 C 227.195312 200.558594 225.890625 200.007812 224.308594 199.34375 C 222.734375 198.667969 220.898438 197.875 218.535156 197.875 C 216.167969 197.875 214.332031 198.667969 212.757812 199.34375 C 211.183594 200.015625 209.867188 200.558594 208.191406 200.558594 C 206.515625 200.558594 205.199219 200.007812 203.625 199.34375 C 202.828125 198.972656 201.890625 199.324219 201.554688 200.128906 C 201.207031 200.929688 201.601562 201.851562 202.414062 202.171875 C 203.984375 202.835938 205.824219 203.636719 208.191406 203.636719 C 210.550781 203.636719 212.390625 202.835938 213.960938 202.171875 C 215.542969 201.5 216.851562 200.953125 218.535156 200.953125 C 220.214844 200.953125 221.523438 201.5 223.105469 202.171875 C 224.675781 202.835938 226.515625 203.636719 228.875 203.636719 C 231.242188 203.636719 233.082031 202.835938 234.652344 202.171875 C 236.234375 201.5 237.542969 200.953125 239.21875 200.953125 C 240.898438 200.953125 242.214844 201.5 243.789062 202.171875 C 245.359375 202.835938 247.199219 203.636719 249.566406 203.636719 C 251.925781 203.636719 254.574219 202.910156 256.726562 202.21875 C 258.875 201.523438 260.511719 200.824219 260.511719 200.824219 C 262.109375 200.167969 261.582031 197.785156 259.855469 197.867188 Z M 124.164062 211.527344 C 120.777344 211.527344 118 214.300781 118 217.675781 C 118 221.058594 120.777344 223.832031 124.164062 223.832031 C 127.554688 223.832031 130.328125 221.058594 130.328125 217.675781 C 130.328125 214.300781 127.554688 211.527344 124.164062 211.527344 Z M 165.980469 211.527344 C 162.59375 211.527344 159.816406 214.300781 159.816406 217.675781 C 159.816406 221.058594 162.59375 223.832031 165.980469 223.832031 C 169.367188 223.832031 172.144531 221.058594 172.144531 217.675781 C 172.144531 214.300781 169.367188 211.527344 165.980469 211.527344 Z M 209.019531 211.527344 C 205.632812 211.527344 202.855469 214.300781 202.855469 217.675781 C 202.855469 221.058594 205.632812 223.832031 209.019531 223.832031 C 212.40625 223.832031 215.183594 221.058594 215.183594 217.675781 C 215.183594 214.300781 212.40625 211.527344 209.019531 211.527344 Z M 250.84375 211.527344 C 247.457031 211.527344 244.679688 214.300781 244.679688 217.675781 C 244.679688 221.058594 247.457031 223.832031 250.84375 223.832031 C 254.222656 223.832031 257 221.058594 257 217.675781 C 257 214.300781 254.222656 211.527344 250.84375 211.527344 Z M 145.089844 214.605469 C 143.40625 214.605469 142.007812 216 142.007812 217.675781 L 142.007812 217.683594 C 142.007812 219.367188 143.40625 220.753906 145.089844 220.753906 C 146.765625 220.753906 148.164062 219.367188 148.171875 217.683594 L 148.171875 217.675781 C 148.171875 216 146.765625 214.605469 145.089844 214.605469 Z M 229.917969 214.605469 C 228.234375 214.605469 226.835938 216 226.835938 217.675781 L 226.835938 217.683594 C 226.835938 219.367188 228.234375 220.753906 229.917969 220.753906 C 231.605469 220.753906 232.992188 219.367188 233 217.683594 L 233 217.675781 C 233 216 231.605469 214.605469 229.917969 214.605469 Z M 183.101562 220.070312 C 182.433594 220.0625 181.824219 220.488281 181.617188 221.128906 C 181.175781 222.371094 180.621094 223.574219 179.957031 224.71875 C 177.28125 229.273438 172.859375 232.824219 167.273438 234.300781 C 165.074219 234.882812 162.859375 235.085938 160.699219 234.972656 L 162.660156 233.042969 C 163.671875 232.0625 162.964844 230.355469 161.558594 230.386719 C 161.160156 230.402344 160.773438 230.5625 160.492188 230.851562 L 156.078125 235.199219 C 155.28125 235.757812 155.195312 236.898438 155.902344 237.570312 L 155.910156 237.578125 C 155.910156 237.585938 155.910156 237.585938 155.910156 237.585938 L 160.492188 242.097656 C 161.09375 242.707031 162.082031 242.714844 162.683594 242.097656 C 163.292969 241.488281 163.277344 240.503906 162.660156 239.910156 L 160.773438 238.058594 C 163.164062 238.164062 165.621094 237.914062 168.050781 237.273438 C 174.433594 235.589844 179.539062 231.503906 182.613281 226.265625 C 183.375 224.953125 184.015625 223.574219 184.515625 222.140625 C 184.882812 221.144531 184.160156 220.09375 183.101562 220.070312 Z M 192.917969 220.078125 C 192.863281 220.070312 192.8125 220.070312 192.765625 220.078125 L 192.757812 220.078125 C 191.722656 220.136719 191.039062 221.167969 191.394531 222.140625 C 191.898438 223.574219 192.53125 224.960938 193.304688 226.265625 C 196.367188 231.511719 201.472656 235.597656 207.855469 237.28125 C 210.292969 237.921875 212.742188 238.164062 215.140625 238.058594 L 213.253906 239.917969 C 212.628906 240.503906 212.613281 241.496094 213.214844 242.113281 C 213.824219 242.722656 214.820312 242.722656 215.421875 242.105469 L 220.023438 237.570312 C 220.03125 237.5625 220.046875 237.554688 220.054688 237.539062 C 220.0625 237.53125 220.070312 237.523438 220.078125 237.515625 C 220.710938 236.832031 220.609375 235.742188 219.84375 235.207031 L 215.421875 230.851562 C 215.132812 230.554688 214.734375 230.386719 214.316406 230.386719 C 212.925781 230.394531 212.261719 232.078125 213.253906 233.042969 L 215.214844 234.972656 C 213.0625 235.09375 210.847656 234.894531 208.640625 234.300781 C 203.054688 232.824219 198.632812 229.273438 195.960938 224.71875 C 195.292969 223.574219 194.738281 222.371094 194.296875 221.128906 C 194.097656 220.527344 193.550781 220.109375 192.917969 220.078125 Z M 145.089844 230.242188 C 141.703125 230.242188 138.925781 233.015625 138.925781 236.398438 C 138.925781 239.78125 141.703125 242.554688 145.089844 242.554688 C 148.46875 242.554688 151.253906 239.78125 151.253906 236.398438 C 151.253906 233.015625 148.46875 230.242188 145.089844 230.242188 Z M 187.5 230.242188 C 184.113281 230.242188 181.335938 233.015625 181.335938 236.398438 C 181.335938 239.78125 184.113281 242.554688 187.5 242.554688 C 190.886719 242.554688 193.664062 239.78125 193.664062 236.398438 C 193.664062 233.015625 190.886719 230.242188 187.5 230.242188 Z M 229.917969 230.242188 C 226.53125 230.242188 223.753906 233.015625 223.753906 236.398438 C 223.753906 239.78125 226.53125 242.554688 229.917969 242.554688 C 233.304688 242.554688 236.082031 239.78125 236.082031 236.398438 C 236.082031 233.015625 233.304688 230.242188 229.917969 230.242188 Z M 165.980469 248.945312 C 162.59375 248.945312 159.816406 251.71875 159.816406 255.09375 C 159.816406 258.476562 162.59375 261.25 165.980469 261.25 C 169.367188 261.25 172.144531 258.476562 172.144531 255.09375 C 172.144531 251.71875 169.367188 248.945312 165.980469 248.945312 Z M 209.019531 248.945312 C 205.632812 248.945312 202.855469 251.71875 202.855469 255.09375 C 202.855469 258.476562 205.632812 261.25 209.019531 261.25 C 212.40625 261.25 215.183594 258.476562 215.183594 255.09375 C 215.183594 251.71875 212.40625 248.945312 209.019531 248.945312 Z M 187.5 252.023438 C 185.816406 252.023438 184.417969 253.417969 184.417969 255.09375 L 184.417969 255.101562 C 184.417969 256.777344 185.816406 258.171875 187.5 258.171875 C 189.183594 258.171875 190.582031 256.777344 190.582031 255.101562 L 190.582031 255.09375 C 190.582031 253.417969 189.183594 252.023438 187.5 252.023438 Z M 187.5 252.023438 " fill-opacity="1" fill-rule="nonzero"/></g></svg>