<svg xmlns="http://www.w3.org/2000/svg" xmlns:xlink="http://www.w3.org/1999/xlink" width="500" zoomAndPan="magnify" viewBox="0 0 375 374.999991" height="500" preserveAspectRatio="xMidYMid meet" version="1.0"><defs><clipPath id="id1"><path d="M 112.5 117.667969 L 262.5 117.667969 L 262.5 257.136719 L 112.5 257.136719 Z M 112.5 117.667969 " clip-rule="nonzero"/></clipPath></defs><rect x="-37.5" width="450" fill="#ffffff" y="-37.499999" height="449.999989" fill-opacity="1"/><rect x="-37.5" width="450" fill="#ffffff" y="-37.499999" height="449.999989" fill-opacity="1"/><path fill="#425f97" d="M 187.515625 17.070312 L 357.976562 187.535156 L 187.511719 357.996094 L 17.050781 187.527344 Z M 187.515625 17.070312 " fill-opacity="1" fill-rule="nonzero"/><path fill="#425f97" d="M 187.5 375 L 0 187.5 L 187.5 0 L 375 187.5 Z M 2.386719 187.5 L 187.5 372.613281 L 372.613281 187.5 L 187.5 2.386719 Z M 2.386719 187.5 " fill-opacity="1" fill-rule="nonzero"/><path fill="#ffffff" d="M 132.71875 150.359375 C 131.4375 150.359375 130.398438 151.394531 130.398438 152.675781 L 130.398438 179.816406 C 130.398438 181.097656 131.4375 182.132812 132.71875 182.132812 C 134 182.132812 135.039062 181.097656 135.039062 179.816406 L 135.039062 152.675781 C 135.039062 151.394531 134 150.359375 132.71875 150.359375 " fill-opacity="1" fill-rule="nonzero"/><path fill="#ffffff" d="M 145.09375 142.195312 C 143.8125 142.195312 142.773438 143.230469 142.773438 144.511719 L 142.773438 187.984375 C 142.773438 189.265625 143.8125 190.300781 145.09375 190.300781 C 146.375 190.300781 147.410156 189.265625 147.410156 187.984375 L 147.410156 144.511719 C 147.410156 143.230469 146.375 142.195312 145.09375 142.195312 " fill-opacity="1" fill-rule="nonzero"/><path fill="#ffffff" d="M 157.46875 184.117188 C 158.75 184.117188 159.785156 183.082031 159.785156 181.804688 L 159.785156 150.691406 C 159.785156 149.410156 158.75 148.375 157.46875 148.375 C 156.1875 148.375 155.148438 149.410156 155.148438 150.691406 L 155.148438 181.804688 C 155.148438 183.082031 156.1875 184.117188 157.46875 184.117188 " fill-opacity="1" fill-rule="nonzero"/><path fill="#ffffff" d="M 169.839844 190.300781 C 171.125 190.300781 172.160156 189.265625 172.160156 187.984375 L 172.160156 144.511719 C 172.160156 143.230469 171.125 142.195312 169.839844 142.195312 C 168.5625 142.195312 167.523438 143.230469 167.523438 144.511719 L 167.523438 187.984375 C 167.523438 189.265625 168.5625 190.300781 169.839844 190.300781 " fill-opacity="1" fill-rule="nonzero"/><path fill="#ffffff" d="M 182.214844 184.117188 C 183.496094 184.117188 184.535156 183.082031 184.535156 181.804688 L 184.535156 150.691406 C 184.535156 149.410156 183.496094 148.375 182.214844 148.375 C 180.933594 148.375 179.898438 149.410156 179.898438 150.691406 L 179.898438 181.804688 C 179.898438 183.082031 180.933594 184.117188 182.214844 184.117188 " fill-opacity="1" fill-rule="nonzero"/><path fill="#ffffff" d="M 194.589844 190.300781 C 195.871094 190.300781 196.910156 189.265625 196.910156 187.984375 L 196.910156 172.207031 C 196.910156 170.925781 195.871094 169.890625 194.589844 169.890625 C 193.308594 169.890625 192.273438 170.925781 192.273438 172.207031 L 192.273438 187.984375 C 192.273438 189.265625 193.308594 190.300781 194.589844 190.300781 " fill-opacity="1" fill-rule="nonzero"/><path fill="#ffffff" d="M 194.589844 159.789062 C 195.871094 159.789062 196.910156 158.753906 196.910156 157.472656 L 196.910156 144.511719 C 196.910156 143.230469 195.871094 142.195312 194.589844 142.195312 C 193.308594 142.195312 192.273438 143.230469 192.273438 144.511719 L 192.273438 157.472656 C 192.273438 158.753906 193.308594 159.789062 194.589844 159.789062 " fill-opacity="1" fill-rule="nonzero"/><path fill="#ffffff" d="M 206.964844 182.132812 C 208.246094 182.132812 209.285156 181.097656 209.285156 179.816406 L 209.285156 152.675781 C 209.285156 151.394531 208.246094 150.359375 206.964844 150.359375 C 205.683594 150.359375 204.644531 151.394531 204.644531 152.675781 L 204.644531 179.816406 C 204.644531 181.097656 205.683594 182.132812 206.964844 182.132812 " fill-opacity="1" fill-rule="nonzero"/><g clip-path="url(#id1)"><path fill="#ffffff" d="M 257.863281 227.300781 C 257.863281 232.558594 253.578125 236.835938 248.316406 236.835938 L 238.015625 236.835938 C 236.734375 236.835938 235.695312 237.871094 235.695312 239.152344 C 235.695312 246.515625 229.703125 252.503906 222.328125 252.503906 C 214.953125 252.503906 208.957031 246.515625 208.957031 239.152344 C 208.957031 237.871094 207.917969 236.835938 206.636719 236.835938 L 162 236.835938 C 157.285156 236.835938 153.359375 233.410156 152.589844 228.917969 C 152.617188 228.917969 152.644531 228.917969 152.671875 228.917969 C 161.816406 228.917969 169.390625 222.074219 170.53125 213.25 L 213 213.25 C 220.820312 213.25 227.183594 206.894531 227.183594 199.085938 L 227.183594 150.511719 L 248.316406 150.511719 C 253.578125 150.511719 257.863281 154.789062 257.863281 160.046875 Z M 139.304688 210.933594 C 139.304688 209.65625 138.265625 208.617188 136.984375 208.617188 L 126.683594 208.617188 C 121.421875 208.617188 117.136719 204.34375 117.136719 199.085938 L 117.136719 131.828125 C 117.136719 126.574219 121.421875 122.296875 126.683594 122.296875 L 213 122.296875 C 218.261719 122.296875 222.546875 126.574219 222.546875 131.828125 L 222.546875 199.085938 C 222.546875 204.34375 218.261719 208.617188 213 208.617188 L 168.363281 208.617188 C 167.082031 208.617188 166.042969 209.65625 166.042969 210.933594 C 166.042969 218.300781 160.046875 224.289062 152.671875 224.289062 C 152.488281 224.289062 152.304688 224.28125 152.121094 224.273438 C 151.574219 224.246094 151.039062 224.183594 150.511719 224.097656 C 150.4375 224.082031 150.367188 224.078125 150.296875 224.070312 C 144.050781 222.949219 139.304688 217.488281 139.304688 210.933594 Z M 248.316406 145.882812 L 227.183594 145.882812 L 227.183594 131.828125 C 227.183594 124.019531 220.820312 117.667969 213 117.667969 L 126.683594 117.667969 C 118.863281 117.667969 112.5 124.019531 112.5 131.828125 L 112.5 199.085938 C 112.5 206.894531 118.863281 213.25 126.683594 213.25 L 134.816406 213.25 C 135.75 220.464844 140.980469 226.351562 147.851562 228.261719 C 148.347656 235.625 154.503906 241.46875 162 241.46875 L 204.46875 241.46875 C 205.609375 250.292969 213.183594 257.136719 222.328125 257.136719 C 231.46875 257.136719 239.042969 250.292969 240.183594 241.46875 L 248.316406 241.46875 C 256.136719 241.46875 262.5 235.113281 262.5 227.300781 L 262.5 160.046875 C 262.5 152.238281 256.136719 145.882812 248.316406 145.882812 " fill-opacity="1" fill-rule="nonzero"/></g><path fill="#ffffff" d="M 240.222656 172.207031 C 238.941406 172.207031 237.90625 173.242188 237.90625 174.523438 L 237.90625 208.285156 C 237.90625 209.566406 238.941406 210.601562 240.222656 210.601562 C 241.503906 210.601562 242.542969 209.566406 242.542969 208.285156 L 242.542969 174.523438 C 242.542969 173.242188 241.503906 172.207031 240.222656 172.207031 " fill-opacity="1" fill-rule="nonzero"/></svg>