<svg xmlns="http://www.w3.org/2000/svg" xmlns:xlink="http://www.w3.org/1999/xlink" width="500" zoomAndPan="magnify" viewBox="0 0 375 374.999991" height="500" preserveAspectRatio="xMidYMid meet" version="1.0"><defs><clipPath id="036d44af28"><path d="M 135.84375 112.5 L 239.34375 112.5 L 239.34375 262.5 L 135.84375 262.5 Z M 135.84375 112.5 " clip-rule="nonzero"/></clipPath></defs><rect x="-37.5" width="450" fill="#ffffff" y="-37.499999" height="449.999989" fill-opacity="1"/><rect x="-37.5" width="450" fill="#ffffff" y="-37.499999" height="449.999989" fill-opacity="1"/><path fill="#425f97" d="M 187.515625 17.070312 L 357.976562 187.535156 L 187.511719 357.996094 L 17.050781 187.527344 Z M 187.515625 17.070312 " fill-opacity="1" fill-rule="nonzero"/><path fill="#425f97" d="M 187.5 375 L 0 187.5 L 187.5 0 L 375 187.5 Z M 2.386719 187.5 L 187.5 372.613281 L 372.613281 187.5 L 187.5 2.386719 Z M 2.386719 187.5 " fill-opacity="1" fill-rule="nonzero"/><g clip-path="url(#036d44af28)"><path fill="#ffffff" d="M 229.328125 130.84375 L 215.472656 130.84375 C 214.035156 126.027344 209.5625 122.511719 204.289062 122.511719 L 199.164062 122.511719 C 198.34375 116.863281 193.46875 112.515625 187.59375 112.515625 C 181.71875 112.515625 176.828125 116.863281 176.023438 122.511719 L 170.898438 122.511719 C 165.609375 122.511719 161.132812 126.027344 159.699219 130.84375 L 145.859375 130.84375 C 140.335938 130.84375 135.84375 135.328125 135.84375 140.84375 L 135.84375 252.488281 C 135.84375 258.003906 140.335938 262.484375 145.859375 262.484375 L 229.328125 262.484375 C 234.835938 262.484375 239.34375 258.003906 239.34375 252.488281 L 239.34375 140.84375 C 239.34375 135.328125 234.835938 130.84375 229.328125 130.84375 Z M 170.898438 129.179688 L 179.246094 129.179688 C 181.082031 129.179688 182.585938 127.679688 182.585938 125.847656 L 182.585938 124.179688 C 182.585938 121.414062 184.824219 119.179688 187.59375 119.179688 C 190.347656 119.179688 192.601562 121.414062 192.601562 124.179688 L 192.601562 125.847656 C 192.601562 127.679688 194.085938 129.179688 195.941406 129.179688 L 204.289062 129.179688 C 207.042969 129.179688 209.296875 131.410156 209.296875 134.175781 C 209.296875 136.925781 207.042969 139.175781 204.289062 139.175781 L 170.898438 139.175781 C 168.128906 139.175781 165.890625 136.925781 165.890625 134.175781 C 165.890625 131.410156 168.128906 129.179688 170.898438 129.179688 Z M 232.667969 252.488281 C 232.667969 254.320312 231.164062 255.820312 229.328125 255.820312 L 145.859375 255.820312 C 144.007812 255.820312 142.519531 254.320312 142.519531 252.488281 L 142.519531 140.84375 C 142.519531 139.011719 144.007812 137.511719 145.859375 137.511719 L 159.699219 137.511719 C 161.132812 142.324219 165.609375 145.839844 170.898438 145.839844 L 204.289062 145.839844 C 209.5625 145.839844 214.035156 142.324219 215.472656 137.511719 L 229.328125 137.511719 C 231.164062 137.511719 232.667969 139.011719 232.667969 140.84375 Z M 232.667969 252.488281 " fill-opacity="1" fill-rule="nonzero"/></g><path fill="#ffffff" d="M 172.570312 239.15625 L 155.875 239.15625 C 154.023438 239.15625 152.539062 240.640625 152.539062 242.488281 C 152.539062 244.320312 154.023438 245.820312 155.875 245.820312 L 172.570312 245.820312 C 174.40625 245.820312 175.910156 244.320312 175.910156 242.488281 C 175.910156 240.640625 174.40625 239.15625 172.570312 239.15625 Z M 172.570312 239.15625 " fill-opacity="1" fill-rule="nonzero"/><path fill="#ffffff" d="M 219.3125 239.15625 L 189.261719 239.15625 C 187.410156 239.15625 185.925781 240.640625 185.925781 242.488281 C 185.925781 244.320312 187.410156 245.820312 189.261719 245.820312 L 219.3125 245.820312 C 221.148438 245.820312 222.648438 244.320312 222.648438 242.488281 C 222.648438 240.640625 221.148438 239.15625 219.3125 239.15625 Z M 219.3125 239.15625 " fill-opacity="1" fill-rule="nonzero"/><path fill="#ffffff" d="M 172.570312 222.492188 L 155.875 222.492188 C 154.023438 222.492188 152.539062 223.976562 152.539062 225.824219 C 152.539062 227.660156 154.023438 229.160156 155.875 229.160156 L 172.570312 229.160156 C 174.40625 229.160156 175.910156 227.660156 175.910156 225.824219 C 175.910156 223.976562 174.40625 222.492188 172.570312 222.492188 Z M 172.570312 222.492188 " fill-opacity="1" fill-rule="nonzero"/><path fill="#ffffff" d="M 219.3125 222.492188 L 189.261719 222.492188 C 187.410156 222.492188 185.925781 223.976562 185.925781 225.824219 C 185.925781 227.660156 187.410156 229.160156 189.261719 229.160156 L 219.3125 229.160156 C 221.148438 229.160156 222.648438 227.660156 222.648438 225.824219 C 222.648438 223.976562 221.148438 222.492188 219.3125 222.492188 Z M 219.3125 222.492188 " fill-opacity="1" fill-rule="nonzero"/><path fill="#ffffff" d="M 172.570312 205.828125 L 155.875 205.828125 C 154.023438 205.828125 152.539062 207.3125 152.539062 209.164062 C 152.539062 210.996094 154.023438 212.496094 155.875 212.496094 L 172.570312 212.496094 C 174.40625 212.496094 175.910156 210.996094 175.910156 209.164062 C 175.910156 207.3125 174.40625 205.828125 172.570312 205.828125 Z M 172.570312 205.828125 " fill-opacity="1" fill-rule="nonzero"/><path fill="#ffffff" d="M 219.3125 205.828125 L 189.261719 205.828125 C 187.410156 205.828125 185.925781 207.3125 185.925781 209.164062 C 185.925781 210.996094 187.410156 212.496094 189.261719 212.496094 L 219.3125 212.496094 C 221.148438 212.496094 222.648438 210.996094 222.648438 209.164062 C 222.648438 207.3125 221.148438 205.828125 219.3125 205.828125 Z M 219.3125 205.828125 " fill-opacity="1" fill-rule="nonzero"/><path fill="#ffffff" d="M 172.570312 189.167969 L 155.875 189.167969 C 154.023438 189.167969 152.539062 190.648438 152.539062 192.5 C 152.539062 194.332031 154.023438 195.832031 155.875 195.832031 L 172.570312 195.832031 C 174.40625 195.832031 175.910156 194.332031 175.910156 192.5 C 175.910156 190.648438 174.40625 189.167969 172.570312 189.167969 Z M 172.570312 189.167969 " fill-opacity="1" fill-rule="nonzero"/><path fill="#ffffff" d="M 219.3125 189.167969 L 189.261719 189.167969 C 187.410156 189.167969 185.925781 190.648438 185.925781 192.5 C 185.925781 194.332031 187.410156 195.832031 189.261719 195.832031 L 219.3125 195.832031 C 221.148438 195.832031 222.648438 194.332031 222.648438 192.5 C 222.648438 190.648438 221.148438 189.167969 219.3125 189.167969 Z M 219.3125 189.167969 " fill-opacity="1" fill-rule="nonzero"/><path fill="#ffffff" d="M 219.3125 172.503906 L 189.261719 172.503906 C 187.410156 172.503906 185.925781 173.984375 185.925781 175.835938 C 185.925781 177.667969 187.410156 179.167969 189.261719 179.167969 L 219.3125 179.167969 C 221.148438 179.167969 222.648438 177.667969 222.648438 175.835938 C 222.648438 173.984375 221.148438 172.503906 219.3125 172.503906 Z M 219.3125 172.503906 " fill-opacity="1" fill-rule="nonzero"/><path fill="#ffffff" d="M 219.3125 155.839844 L 189.261719 155.839844 C 187.410156 155.839844 185.925781 157.324219 185.925781 159.171875 C 185.925781 161.003906 187.410156 162.503906 189.261719 162.503906 L 219.3125 162.503906 C 221.148438 162.503906 222.648438 161.003906 222.648438 159.171875 C 222.648438 157.324219 221.148438 155.839844 219.3125 155.839844 Z M 219.3125 155.839844 " fill-opacity="1" fill-rule="nonzero"/><path fill="#ffffff" d="M 172.570312 164.171875 L 167.5625 164.171875 L 167.5625 159.171875 C 167.5625 157.324219 166.058594 155.839844 164.222656 155.839844 C 162.371094 155.839844 160.882812 157.324219 160.882812 159.171875 L 160.882812 164.171875 L 155.875 164.171875 C 154.023438 164.171875 152.539062 165.65625 152.539062 167.503906 C 152.539062 169.335938 154.023438 170.835938 155.875 170.835938 L 160.882812 170.835938 L 160.882812 175.835938 C 160.882812 177.667969 162.371094 179.167969 164.222656 179.167969 C 166.058594 179.167969 167.5625 177.667969 167.5625 175.835938 L 167.5625 170.835938 L 172.570312 170.835938 C 174.40625 170.835938 175.910156 169.335938 175.910156 167.503906 C 175.910156 165.65625 174.40625 164.171875 172.570312 164.171875 Z M 172.570312 164.171875 " fill-opacity="1" fill-rule="nonzero"/></svg>