<svg xmlns="http://www.w3.org/2000/svg" xmlns:xlink="http://www.w3.org/1999/xlink" width="500" zoomAndPan="magnify" viewBox="0 0 375 374.999991" height="500" preserveAspectRatio="xMidYMid meet" version="1.0"><defs><clipPath id="id1"><path d="M 114 112.5 L 262 112.5 L 262 262.5 L 114 262.5 Z M 114 112.5 " clip-rule="nonzero"/></clipPath></defs><rect x="-37.5" width="450" fill="#ffffff" y="-37.499999" height="449.999989" fill-opacity="1"/><rect x="-37.5" width="450" fill="#ffffff" y="-37.499999" height="449.999989" fill-opacity="1"/><path fill="#425f97" d="M 187.515625 17.070312 L 357.976562 187.535156 L 187.511719 357.996094 L 17.050781 187.527344 Z M 187.515625 17.070312 " fill-opacity="1" fill-rule="nonzero"/><path fill="#425f97" d="M 187.5 375 L 0 187.5 L 187.5 0 L 375 187.5 Z M 2.386719 187.5 L 187.5 372.613281 L 372.613281 187.5 L 187.5 2.386719 Z M 2.386719 187.5 " fill-opacity="1" fill-rule="nonzero"/><path fill="#ffffff" d="M 249.597656 180.1875 C 248.675781 180.035156 247.792969 179.996094 246.949219 180.027344 C 244.597656 142.953125 225.640625 114.089844 188.441406 114.089844 C 151.113281 114.089844 132.710938 143.144531 130.539062 180.390625 C 128.785156 180.035156 126.863281 180.105469 124.792969 180.6875 C 116.589844 183 114.75 190.882812 117.128906 199.300781 C 119.371094 207.230469 128.304688 217.324219 132.667969 217.503906 L 132.683594 217.601562 C 132.683594 243.507812 164.304688 260.859375 189.285156 260.859375 C 214.785156 260.859375 245.882812 243.152344 245.882812 214.488281 C 250.417969 213.5 258.222656 205.613281 259.484375 197.820312 C 260.882812 189.191406 258.019531 181.554688 249.597656 180.1875 " fill-opacity="1" fill-rule="nonzero"/><g clip-path="url(#id1)"><path fill="#090c0f" d="M 128.347656 181.734375 C 127.34375 181.734375 126.292969 181.882812 125.21875 182.191406 C 115.507812 184.929688 117.726562 195.652344 118.632812 198.875 C 120.851562 206.71875 129.46875 215.8125 132.734375 215.949219 C 133.496094 215.980469 134.125 216.558594 134.222656 217.3125 C 134.25 243.433594 166.300781 259.300781 189.285156 259.300781 C 215.316406 259.300781 244.316406 240.902344 244.316406 214.488281 C 244.316406 213.761719 244.832031 213.125 245.546875 212.964844 C 249.507812 212.105469 256.785156 204.707031 257.9375 197.570312 C 258.472656 194.273438 259.441406 183.367188 249.347656 181.726562 C 248.695312 181.617188 248.074219 181.574219 247.472656 181.574219 L 247.003906 181.582031 C 246.101562 181.589844 245.441406 180.960938 245.390625 180.125 C 242.828125 139.75 221.539062 115.644531 188.441406 115.644531 C 155.53125 115.644531 134.46875 139.882812 132.101562 180.484375 C 132.074219 180.9375 131.851562 181.355469 131.492188 181.632812 C 131.128906 181.902344 130.664062 182.015625 130.222656 181.921875 C 129.621094 181.792969 128.988281 181.734375 128.347656 181.734375 Z M 189.285156 262.421875 C 165.339844 262.421875 132.078125 245.851562 131.140625 218.773438 C 125.789062 216.992188 117.804688 207.433594 115.625 199.722656 C 112.707031 189.398438 116.058594 181.53125 124.367188 179.1875 C 125.984375 178.730469 127.566406 178.546875 129.085938 178.632812 C 132.039062 137.203125 154.140625 112.535156 188.441406 112.535156 C 222.976562 112.535156 245.316406 137.152344 248.410156 178.488281 C 248.882812 178.515625 249.363281 178.5625 249.855469 178.644531 C 258.332031 180.027344 262.714844 187.648438 261.027344 198.070312 C 259.816406 205.558594 252.785156 213.578125 247.429688 215.648438 C 246.636719 243.675781 216.996094 262.421875 189.285156 262.421875 " fill-opacity="1" fill-rule="nonzero"/></g><path fill="#d3d2d2" d="M 235.1875 161.785156 C 235.707031 168.648438 247.074219 198.691406 247.074219 198.691406 C 247.074219 198.691406 248.742188 190.175781 249.597656 180.1875 C 251.304688 180.660156 252.867188 180.996094 255.933594 183.015625 C 259.820312 165.265625 247.179688 144.023438 240.921875 144.179688 C 234.351562 144.351562 234.667969 154.945312 235.1875 161.785156 " fill-opacity="1" fill-rule="nonzero"/><path fill="#090c0f" d="M 240.992188 145.738281 C 239.972656 145.769531 239.21875 146.097656 238.589844 146.792969 C 235.847656 149.824219 236.5 158.429688 236.75 161.671875 C 237.082031 166.105469 242.488281 181.726562 246.511719 192.679688 C 247.023438 189.347656 247.628906 184.863281 248.039062 180.058594 C 248.078125 179.59375 248.320312 179.171875 248.703125 178.90625 C 249.085938 178.644531 249.566406 178.5625 250.011719 178.679688 C 251.53125 179.09375 252.886719 179.460938 254.796875 180.5 C 256.328125 169.363281 251.617188 156.523438 246.027344 149.597656 C 243.730469 146.75 241.921875 145.738281 240.992188 145.738281 Z M 247.074219 200.246094 C 246.433594 200.246094 245.84375 199.851562 245.613281 199.242188 C 245.144531 198.003906 234.160156 168.90625 233.632812 161.90625 C 233.132812 155.390625 233.058594 148.246094 236.265625 144.707031 C 237.476562 143.371094 239.023438 142.671875 240.882812 142.621094 C 243.820312 142.621094 246.613281 145.347656 248.464844 147.644531 C 255.035156 155.78125 260.238281 170.664062 257.460938 183.351562 C 257.351562 183.851562 257 184.269531 256.523438 184.460938 C 256.050781 184.65625 255.503906 184.609375 255.074219 184.316406 C 253.257812 183.125 252.058594 182.574219 250.984375 182.210938 C 250.097656 191.347656 248.628906 198.90625 248.609375 198.988281 C 248.480469 199.671875 247.902344 200.1875 247.207031 200.242188 C 247.164062 200.246094 247.121094 200.246094 247.074219 200.246094 " fill-opacity="1" fill-rule="nonzero"/><path fill="#d3d2d2" d="M 144.113281 161.785156 C 143.585938 168.648438 132.222656 198.691406 132.222656 198.691406 C 132.222656 198.691406 131.277344 188.011719 130.421875 178.015625 C 128.710938 178.476562 124.816406 179.960938 121.75 181.972656 C 116.164062 166.050781 130.425781 139.53125 138.375 144.179688 C 144.042969 147.507812 144.628906 154.945312 144.113281 161.785156 " fill-opacity="1" fill-rule="nonzero"/><path fill="#090c0f" d="M 130.421875 176.460938 C 130.738281 176.460938 131.050781 176.554688 131.316406 176.742188 C 131.699219 177.003906 131.9375 177.421875 131.980469 177.882812 C 132.394531 182.746094 132.832031 187.765625 133.175781 191.636719 C 137.144531 180.757812 142.222656 165.964844 142.550781 161.671875 C 143.203125 153.03125 141.625 147.898438 137.582031 145.527344 C 135.582031 144.371094 132.519531 146.453125 129.554688 150.613281 C 124.28125 158.03125 120.519531 170.484375 122.679688 179.59375 C 125.46875 178.046875 128.441406 176.933594 130.007812 176.511719 C 130.144531 176.476562 130.285156 176.460938 130.421875 176.460938 Z M 132.222656 200.246094 C 132.152344 200.246094 132.082031 200.242188 132.011719 200.234375 C 131.285156 200.136719 130.730469 199.554688 130.664062 198.824219 C 130.664062 198.824219 129.835938 189.496094 129.03125 180.117188 C 127.179688 180.800781 124.683594 181.914062 122.609375 183.277344 C 122.210938 183.535156 121.703125 183.605469 121.246094 183.453125 C 120.789062 183.292969 120.429688 182.941406 120.269531 182.484375 C 116.578125 171.953125 120.980469 157.273438 127 148.808594 C 129.183594 145.738281 132.589844 142.085938 136.394531 142.085938 C 137.375 142.085938 138.308594 142.339844 139.167969 142.835938 C 145.988281 146.835938 146.144531 155.632812 145.671875 161.90625 C 145.136719 168.90625 134.15625 198.003906 133.6875 199.242188 C 133.453125 199.855469 132.867188 200.246094 132.222656 200.246094 " fill-opacity="1" fill-rule="nonzero"/></svg>