<svg xmlns="http://www.w3.org/2000/svg" xmlns:xlink="http://www.w3.org/1999/xlink" width="500" zoomAndPan="magnify" viewBox="0 0 375 374.999991" height="500" preserveAspectRatio="xMidYMid meet" version="1.0"><defs><clipPath id="id1"><path d="M 169 112.5 L 207 112.5 L 207 158 L 169 158 Z M 169 112.5 " clip-rule="nonzero"/></clipPath><clipPath id="id2"><path d="M 191 152 L 262 152 L 262 262.5 L 191 262.5 Z M 191 152 " clip-rule="nonzero"/></clipPath><clipPath id="id3"><path d="M 113.0625 152 L 184 152 L 184 262.5 L 113.0625 262.5 Z M 113.0625 152 " clip-rule="nonzero"/></clipPath><clipPath id="id4"><path d="M 148 172 L 228 172 L 228 262.5 L 148 262.5 Z M 148 172 " clip-rule="nonzero"/></clipPath></defs><rect x="-37.5" width="450" fill="#ffffff" y="-37.499999" height="449.999989" fill-opacity="1"/><rect x="-37.5" width="450" fill="#ffffff" y="-37.499999" height="449.999989" fill-opacity="1"/><path fill="#425f97" d="M 187.515625 17.070312 L 357.976562 187.535156 L 187.511719 357.996094 L 17.050781 187.527344 Z M 187.515625 17.070312 " fill-opacity="1" fill-rule="nonzero"/><path fill="#425f97" d="M 187.5 375 L 0 187.5 L 187.5 0 L 375 187.5 Z M 2.386719 187.5 L 187.5 372.613281 L 372.613281 187.5 L 187.5 2.386719 Z M 2.386719 187.5 " fill-opacity="1" fill-rule="nonzero"/><path fill="#ffffff" d="M 186.945312 125.019531 L 186.945312 126.558594 L 188.546875 126.558594 L 188.546875 125.019531 C 188.546875 124.371094 189.070312 123.847656 189.714844 123.847656 L 191.246094 123.847656 L 191.246094 122.238281 L 189.714844 122.238281 C 189.070312 122.238281 188.546875 121.714844 188.546875 121.066406 L 188.546875 119.527344 L 186.945312 119.527344 L 186.945312 121.066406 C 186.945312 121.714844 186.421875 122.238281 185.777344 122.238281 L 184.246094 122.238281 L 184.246094 123.847656 L 185.777344 123.847656 C 186.421875 123.847656 186.945312 124.371094 186.945312 125.019531 Z M 186.945312 125.019531 " fill-opacity="1" fill-rule="nonzero"/><g clip-path="url(#id1)"><path fill="#ffffff" d="M 201.875 116.324219 C 200.355469 115.121094 198.496094 114.421875 196.703125 113.828125 C 193.863281 112.894531 190.832031 112.5 187.816406 112.5 C 186.011719 112.5 184.207031 112.640625 182.453125 112.894531 C 181.097656 113.085938 179.757812 113.398438 178.453125 113.828125 C 176.660156 114.421875 174.800781 115.121094 173.28125 116.324219 C 170.304688 118.675781 169.402344 123.285156 169.148438 127.03125 C 169.09375 127.871094 168.902344 130.511719 169.476562 135.035156 C 169.535156 135.523438 169.921875 135.847656 170.398438 135.902344 C 170.304688 136.683594 170.238281 137.46875 170.238281 138.277344 C 170.238281 148.625 178.085938 157.015625 187.746094 157.015625 C 197.40625 157.015625 205.253906 148.625 205.253906 138.277344 C 205.253906 137.460938 205.1875 136.667969 205.089844 135.882812 C 205.503906 135.78125 205.835938 135.476562 205.910156 135.039062 C 206.3125 132.628906 206.503906 129.183594 206.382812 126.605469 C 206.191406 122.628906 205.039062 118.824219 201.875 116.324219 Z M 181.910156 121.703125 C 181.910156 120.707031 182.71875 119.894531 183.714844 119.894531 L 184.609375 119.894531 L 184.609375 118.996094 C 184.609375 117.996094 185.417969 117.1875 186.414062 117.1875 L 189.078125 117.1875 C 190.074219 117.1875 190.882812 117.996094 190.882812 118.996094 L 190.882812 119.894531 L 191.777344 119.894531 C 192.773438 119.894531 193.582031 120.707031 193.582031 121.703125 L 193.582031 124.382812 C 193.582031 125.378906 192.773438 126.191406 191.777344 126.191406 L 190.882812 126.191406 L 190.882812 127.09375 C 190.882812 128.089844 190.074219 128.902344 189.078125 128.902344 L 186.414062 128.902344 C 185.417969 128.902344 184.609375 128.089844 184.609375 127.09375 L 184.609375 126.191406 L 183.714844 126.191406 C 182.71875 126.191406 181.910156 125.378906 181.910156 124.382812 Z M 187.746094 154.671875 C 179.378906 154.671875 172.574219 147.316406 172.574219 138.277344 C 172.574219 137.324219 172.664062 136.394531 172.8125 135.492188 C 176.097656 134.867188 181.4375 134.027344 186.476562 134.027344 C 186.800781 134.027344 187.125 134.03125 187.445312 134.039062 C 193.992188 134.1875 199.46875 134.972656 202.667969 135.546875 C 202.8125 136.4375 202.917969 137.339844 202.917969 138.277344 C 202.917969 147.316406 196.113281 154.671875 187.746094 154.671875 Z M 187.746094 154.671875 " fill-opacity="1" fill-rule="nonzero"/></g><g clip-path="url(#id2)"><path fill="#ffffff" d="M 256.257812 199.042969 C 255.804688 197.832031 254.390625 196.847656 253.101562 196.847656 L 230.796875 196.847656 L 228.578125 157.074219 C 228.578125 154.457031 226.472656 152.332031 223.878906 152.332031 L 202.492188 152.332031 C 201.78125 153.171875 201.019531 153.960938 200.191406 154.671875 L 223.878906 154.671875 C 225.183594 154.671875 226.242188 155.75 226.242188 157.074219 C 226.242188 157.121094 226.246094 157.164062 226.246094 157.207031 L 228.460938 196.847656 L 223.914062 196.847656 C 223.902344 190.277344 223.902344 182.132812 223.902344 182.132812 C 223.902344 168.414062 213 158.304688 200.503906 154.824219 C 200.433594 154.800781 200.375 154.777344 200.292969 154.765625 C 200.242188 154.75 200.1875 154.734375 200.128906 154.722656 C 200.117188 154.730469 200.105469 154.738281 200.09375 154.75 C 199.703125 155.082031 199.296875 155.398438 198.882812 155.699219 C 198.707031 155.824219 198.523438 155.9375 198.34375 156.054688 C 197.164062 156.847656 195.910156 157.523438 194.582031 158.042969 L 193.082031 159.269531 C 192.003906 160.144531 191.742188 161.714844 192.480469 162.917969 L 193.304688 164.25 L 191.546875 170.253906 C 194.003906 170.683594 196.324219 171.5 198.4375 172.671875 L 201.324219 169.472656 C 201.355469 169.441406 201.382812 169.410156 201.410156 169.375 C 201.898438 168.769531 202.125 167.949219 202.054688 167.160156 C 202.648438 167.042969 203.175781 166.71875 203.554688 166.230469 C 204.042969 165.59375 204.207031 164.761719 203.996094 163.945312 L 202.4375 157.894531 C 202.4375 157.894531 202.4375 157.894531 202.441406 157.894531 C 212.921875 161.679688 221.566406 170.488281 221.566406 182.132812 C 221.566406 182.132812 221.566406 190.277344 221.578125 196.847656 L 209.417969 196.847656 C 209.246094 197.644531 209.035156 198.425781 208.777344 199.191406 L 253.101562 199.191406 C 253.417969 199.191406 253.960938 199.566406 254.070312 199.863281 L 254.132812 200.027344 L 254.21875 200.179688 L 258.867188 208.5625 L 202.683594 208.5625 C 202.523438 208.710938 202.367188 208.859375 202.203125 209.003906 C 203 209.25 203.78125 209.523438 204.550781 209.824219 C 204.789062 209.914062 205.015625 210.019531 205.25 210.117188 C 205.777344 210.332031 206.300781 210.554688 206.8125 210.796875 C 216.265625 215.265625 222.933594 223.792969 224.640625 234.335938 L 226.261719 234.335938 C 228.835938 234.335938 230.929688 236.4375 230.929688 239.019531 C 230.929688 241.605469 228.835938 243.707031 226.261719 243.707031 C 226.261719 243.707031 224.675781 258.820312 224.441406 262.453125 L 238.515625 262.453125 C 241.09375 262.453125 243.183594 260.351562 243.183594 257.765625 L 243.183594 231.992188 L 233.261719 231.992188 C 232.617188 231.992188 232.09375 231.46875 232.09375 230.820312 C 232.09375 230.171875 232.617188 229.648438 233.261719 229.648438 L 243.183594 229.648438 L 243.183594 227.304688 L 227.425781 227.304688 C 226.78125 227.304688 226.261719 226.78125 226.261719 226.136719 C 226.261719 225.488281 226.78125 224.964844 227.425781 224.964844 L 243.183594 224.964844 L 243.183594 210.90625 L 260.105469 210.90625 C 261.394531 210.90625 262.074219 209.921875 261.621094 208.710938 Z M 256.257812 199.042969 " fill-opacity="1" fill-rule="nonzero"/></g><g clip-path="url(#id3)"><path fill="#ffffff" d="M 146.914062 157.074219 L 144.695312 196.847656 L 122.390625 196.847656 C 121.101562 196.847656 119.6875 197.832031 119.234375 199.042969 L 113.871094 208.710938 C 113.421875 209.921875 114.097656 210.90625 115.386719 210.90625 L 132.308594 210.90625 L 132.308594 224.964844 L 148.066406 224.964844 C 148.710938 224.964844 149.234375 225.488281 149.234375 226.136719 C 149.234375 226.78125 148.710938 227.304688 148.066406 227.304688 L 132.308594 227.304688 L 132.308594 229.648438 L 142.230469 229.648438 C 142.875 229.648438 143.398438 230.171875 143.398438 230.820312 C 143.398438 231.46875 142.875 231.992188 142.230469 231.992188 L 132.308594 231.992188 L 132.308594 257.765625 C 132.308594 260.351562 134.398438 262.453125 136.976562 262.453125 L 151.175781 262.5 L 149.621094 243.707031 C 147.046875 243.707031 144.953125 241.605469 144.953125 239.019531 C 144.953125 236.4375 147.046875 234.335938 149.621094 234.335938 L 150.832031 234.335938 C 152.539062 223.785156 159.214844 215.253906 168.671875 210.789062 C 169.171875 210.554688 169.683594 210.335938 170.195312 210.125 C 170.441406 210.023438 170.683594 209.914062 170.933594 209.816406 C 171.703125 209.519531 172.484375 209.242188 173.285156 209 C 173.121094 208.855469 172.964844 208.707031 172.808594 208.5625 L 116.625 208.5625 L 121.273438 200.179688 L 121.359375 200.027344 L 121.421875 199.863281 C 121.53125 199.566406 122.074219 199.191406 122.390625 199.191406 L 166.714844 199.191406 C 166.457031 198.425781 166.246094 197.644531 166.074219 196.847656 L 153.902344 196.847656 L 153.902344 182.132812 C 153.902344 170.488281 162.574219 161.667969 173.050781 157.882812 C 173.054688 157.882812 173.058594 157.882812 173.058594 157.882812 L 171.496094 163.949219 C 171.285156 164.761719 171.449219 165.59375 171.9375 166.230469 C 172.316406 166.71875 172.84375 167.042969 173.4375 167.160156 C 173.367188 167.949219 173.59375 168.769531 174.082031 169.375 C 174.109375 169.410156 174.136719 169.441406 174.167969 169.472656 L 177.058594 172.671875 C 179.167969 171.5 181.488281 170.683594 183.945312 170.253906 L 182.191406 164.25 L 183.011719 162.914062 C 183.75 161.714844 183.492188 160.144531 182.40625 159.265625 L 180.910156 158.042969 C 179.585938 157.523438 178.332031 156.851562 177.15625 156.0625 C 176.976562 155.941406 176.789062 155.824219 176.609375 155.699219 C 176.203125 155.402344 175.804688 155.09375 175.421875 154.769531 C 175.402344 154.75 175.378906 154.734375 175.355469 154.71875 C 175.246094 154.75 175.136719 154.78125 175.023438 154.8125 C 162.503906 158.269531 151.566406 168.390625 151.566406 182.132812 L 151.566406 196.847656 L 147.03125 196.847656 L 149.246094 157.207031 C 149.246094 157.164062 149.25 157.121094 149.25 157.074219 C 149.25 155.75 150.308594 154.671875 151.613281 154.671875 L 175.300781 154.671875 C 174.472656 153.960938 173.710938 153.171875 173 152.332031 L 151.613281 152.332031 C 149.019531 152.332031 146.914062 154.457031 146.914062 157.074219 Z M 146.914062 157.074219 " fill-opacity="1" fill-rule="nonzero"/></g><g clip-path="url(#id4)"><path fill="#ffffff" d="M 152.800781 237.664062 C 152.617188 237.707031 152.476562 237.773438 152.347656 237.851562 L 149.621094 237.851562 C 148.976562 237.851562 148.453125 238.375 148.453125 239.019531 C 148.453125 239.667969 148.976562 240.191406 149.621094 240.191406 L 151.808594 240.191406 C 152.144531 244.1875 153.292969 256.589844 153.910156 261.429688 C 153.984375 262.019531 155.164062 262.441406 155.214844 262.441406 C 155.847656 262.441406 221.0625 262.433594 221.609375 262.433594 C 221.644531 262.433594 223.699219 243.722656 224.078125 240.191406 L 226.261719 240.191406 C 226.90625 240.191406 227.425781 239.667969 227.425781 239.019531 C 227.425781 238.375 226.90625 237.851562 226.261719 237.851562 L 223.304688 237.851562 C 223.109375 237.726562 222.914062 237.628906 222.757812 237.558594 C 222.726562 237.542969 222.691406 237.527344 222.660156 237.511719 C 221.648438 223.261719 210.703125 212.226562 196.273438 210.121094 C 202.957031 206.917969 207.585938 200.089844 207.585938 192.164062 C 207.585938 181.167969 198.695312 172.246094 187.746094 172.246094 C 176.796875 172.246094 167.90625 181.167969 167.90625 192.164062 C 167.90625 200.085938 172.53125 206.910156 179.203125 210.113281 C 164.65625 212.207031 153.753906 223.289062 152.800781 237.664062 Z M 170.238281 192.164062 C 170.238281 182.472656 178.09375 174.589844 187.746094 174.589844 C 197.398438 174.589844 205.253906 182.472656 205.253906 192.164062 C 205.253906 201.851562 197.398438 209.734375 187.746094 209.734375 C 178.09375 209.734375 170.238281 201.851562 170.238281 192.164062 Z M 184.214844 212.078125 L 191.25 212.078125 C 207.171875 212.078125 219.371094 222.902344 220.339844 237.851562 L 155.136719 237.851562 C 156.105469 223.101562 168.460938 212.078125 184.214844 212.078125 Z M 184.214844 212.078125 " fill-opacity="1" fill-rule="nonzero"/></g><path fill="#ffffff" d="M 208.339844 183.960938 C 209.339844 186.480469 209.90625 189.21875 209.917969 192.089844 C 210.027344 192.121094 210.136719 192.160156 210.25 192.160156 C 210.4375 192.160156 210.621094 192.117188 210.789062 192.03125 L 216.292969 189.175781 C 216.679688 188.972656 216.921875 188.570312 216.921875 188.132812 L 216.921875 183.882812 C 216.785156 183.925781 216.640625 183.960938 216.484375 183.960938 Z M 208.339844 183.960938 " fill-opacity="1" fill-rule="nonzero"/><path fill="#ffffff" d="M 216.921875 178.105469 C 216.921875 177.457031 216.402344 176.933594 215.757812 176.933594 L 204.085938 176.933594 C 204.023438 176.933594 203.964844 176.957031 203.90625 176.96875 C 205.210938 178.367188 206.351562 179.917969 207.265625 181.617188 L 216.484375 181.617188 C 216.640625 181.617188 216.785156 181.652344 216.921875 181.695312 Z M 216.921875 178.105469 " fill-opacity="1" fill-rule="nonzero"/><path fill="#ffffff" d="M 158.570312 183.898438 L 158.570312 188.132812 C 158.570312 188.589844 158.832031 189.003906 159.246094 189.199219 L 165.414062 192.054688 C 165.464844 192.078125 165.523438 192.074219 165.574219 192.089844 C 165.585938 189.21875 166.152344 186.480469 167.152344 183.960938 L 158.925781 183.960938 C 158.800781 183.960938 158.683594 183.925781 158.570312 183.898438 Z M 158.570312 183.898438 " fill-opacity="1" fill-rule="nonzero"/><path fill="#ffffff" d="M 171.585938 176.96875 C 171.527344 176.957031 171.472656 176.933594 171.40625 176.933594 L 159.734375 176.933594 C 159.089844 176.933594 158.570312 177.457031 158.570312 178.105469 L 158.570312 181.679688 C 158.683594 181.652344 158.800781 181.617188 158.925781 181.617188 L 168.226562 181.617188 C 169.140625 179.917969 170.28125 178.367188 171.585938 176.96875 Z M 171.585938 176.96875 " fill-opacity="1" fill-rule="nonzero"/></svg>