<svg xmlns="http://www.w3.org/2000/svg" xmlns:xlink="http://www.w3.org/1999/xlink" width="500" zoomAndPan="magnify" viewBox="0 0 375 374.999991" height="500" preserveAspectRatio="xMidYMid meet" version="1.0"><rect x="-37.5" width="450" fill="#ffffff" y="-37.499999" height="449.999989" fill-opacity="1"/><rect x="-37.5" width="450" fill="#ffffff" y="-37.499999" height="449.999989" fill-opacity="1"/><rect x="-37.5" width="450" fill="#ffffff" y="-37.499999" height="449.999989" fill-opacity="1"/><path fill="#425f97" d="M 187.515625 17.070312 L 357.976562 187.535156 L 187.511719 357.996094 L 17.050781 187.527344 Z M 187.515625 17.070312 " fill-opacity="1" fill-rule="nonzero"/><path fill="#425f97" d="M 187.5 375 L 0 187.5 L 187.5 0 L 375 187.5 Z M 2.386719 187.5 L 187.5 372.613281 L 372.613281 187.5 L 187.5 2.386719 Z M 2.386719 187.5 " fill-opacity="1" fill-rule="nonzero"/><path fill="#ffffff" d="M 203.050781 118.078125 C 202.296875 118.078125 201.558594 118.4375 201.105469 119.113281 L 154.46875 188.316406 C 153.746094 189.386719 154.03125 190.84375 155.101562 191.566406 L 162.519531 196.5625 C 163.589844 197.285156 165.046875 197 165.769531 195.929688 L 212.40625 126.730469 C 213.128906 125.65625 212.84375 124.195312 211.777344 123.472656 L 204.355469 118.476562 C 203.957031 118.207031 203.5 118.078125 203.050781 118.078125 Z M 163.820312 200.269531 C 162.734375 200.269531 161.640625 199.957031 160.675781 199.300781 L 153.253906 194.304688 C 150.675781 192.566406 149.988281 189.050781 151.726562 186.464844 L 198.367188 117.265625 C 200.105469 114.683594 203.621094 113.996094 206.207031 115.738281 L 213.621094 120.734375 C 216.199219 122.472656 216.886719 125.988281 215.148438 128.574219 L 168.507812 197.777344 C 167.421875 199.394531 165.636719 200.269531 163.820312 200.269531 " fill-opacity="1" fill-rule="nonzero"/><path fill="#ffffff" d="M 147.351562 201.257812 C 147.15625 201.257812 146.964844 201.28125 146.765625 201.316406 C 145.980469 201.472656 145.296875 201.921875 144.851562 202.585938 L 119.519531 240.179688 C 140.054688 237.277344 155.933594 210.574219 156.101562 210.289062 C 157.078125 208.828125 156.714844 206.957031 155.34375 206.035156 L 149.023438 201.773438 C 148.519531 201.4375 147.941406 201.257812 147.351562 201.257812 Z M 113.113281 243.769531 L 142.113281 200.738281 C 143.054688 199.34375 144.484375 198.394531 146.136719 198.070312 C 147.796875 197.746094 149.472656 198.09375 150.867188 199.03125 L 157.1875 203.292969 C 160.074219 205.234375 160.835938 209.160156 158.894531 212.046875 C 158.199219 213.25 140.214844 243.457031 116.261719 243.738281 L 113.113281 243.769531 " fill-opacity="1" fill-rule="nonzero"/><path fill="#ffffff" d="M 157.296875 207.011719 C 156.980469 207.011719 156.660156 206.917969 156.378906 206.726562 C 155.621094 206.21875 155.417969 205.195312 155.933594 204.4375 L 160.707031 197.34375 C 161.222656 196.585938 162.253906 196.382812 163.003906 196.890625 C 163.761719 197.398438 163.964844 198.429688 163.457031 199.1875 L 158.671875 206.28125 C 158.347656 206.757812 157.828125 207.011719 157.296875 207.011719 " fill-opacity="1" fill-rule="nonzero"/><path fill="#ffffff" d="M 148.976562 201.402344 C 148.65625 201.402344 148.335938 201.308594 148.050781 201.117188 C 147.292969 200.609375 147.097656 199.578125 147.605469 198.828125 L 152.386719 191.726562 C 152.898438 190.96875 153.925781 190.773438 154.683594 191.28125 C 155.441406 191.789062 155.636719 192.820312 155.128906 193.578125 L 150.347656 200.671875 C 150.027344 201.148438 149.503906 201.402344 148.976562 201.402344 " fill-opacity="1" fill-rule="nonzero"/><path fill="#ffffff" d="M 208.90625 260.964844 L 201.308594 233.597656 L 197.730469 242.691406 C 197.394531 243.539062 196.433594 243.957031 195.585938 243.621094 C 194.738281 243.285156 194.316406 242.324219 194.652344 241.480469 L 201.851562 223.203125 L 209.449219 250.566406 L 213.441406 240.433594 L 221.449219 240.433594 L 222.09375 238.445312 C 225.554688 227.753906 232.085938 218.519531 240.972656 211.753906 L 241.238281 211.554688 C 245.382812 208.0625 250.148438 203.464844 252.75 200.449219 C 253.429688 199.660156 254.085938 198.765625 254.710938 197.78125 C 255.488281 196.574219 256.117188 195.316406 256.589844 194.058594 C 258.417969 189.175781 258.261719 184.613281 256.128906 180.492188 C 253.671875 175.738281 248.832031 172.574219 243.5 172.222656 C 233.714844 171.59375 229.296875 181.339844 229.113281 181.757812 L 227.613281 185.179688 L 226.085938 181.769531 C 225.886719 181.324219 221 170.753906 210.25 172.558594 C 205.628906 173.332031 201.539062 176.234375 199.308594 180.316406 C 198.625 181.578125 198.117188 182.902344 197.804688 184.261719 C 197.699219 184.703125 195.429688 194.652344 204.980469 203.195312 C 206.242188 204.320312 210.953125 208.269531 215.503906 212.09375 C 219.386719 215.34375 223.050781 218.417969 224.40625 219.597656 C 225.09375 220.199219 225.164062 221.242188 224.5625 221.929688 C 223.964844 222.617188 222.917969 222.691406 222.230469 222.09375 C 220.902344 220.933594 217.25 217.871094 213.378906 214.625 C 208.808594 210.785156 204.078125 206.820312 202.777344 205.65625 C 191.699219 195.746094 194.46875 183.984375 194.589844 183.488281 C 194.964844 181.867188 195.578125 180.253906 196.410156 178.738281 C 199.125 173.765625 204.089844 170.238281 209.707031 169.296875 C 219.199219 167.699219 225 174.003906 227.5625 177.773438 C 229.894531 174.195312 235.046875 168.355469 243.714844 168.925781 C 250.195312 169.347656 256.078125 173.199219 259.066406 178.96875 C 261.609375 183.890625 261.832031 189.507812 259.683594 195.21875 C 259.136719 196.695312 258.394531 198.15625 257.5 199.5625 C 256.789062 200.671875 256.035156 201.695312 255.253906 202.605469 C 252.507812 205.789062 247.699219 210.433594 243.285156 214.148438 L 242.980469 214.378906 C 234.628906 220.738281 228.492188 229.414062 225.238281 239.464844 L 223.855469 243.738281 L 215.691406 243.738281 L 208.90625 260.964844 " fill-opacity="1" fill-rule="nonzero"/><path fill="#ffffff" d="M 174.753906 259.875 L 168.398438 243.738281 L 162.085938 243.738281 C 161.171875 243.738281 160.429688 242.996094 160.429688 242.082031 C 160.429688 241.175781 161.171875 240.433594 162.085938 240.433594 L 170.648438 240.433594 L 174.210938 249.480469 L 181.203125 224.296875 L 187.5625 240.433594 L 196.191406 240.433594 C 197.105469 240.433594 197.84375 241.175781 197.84375 242.082031 C 197.84375 242.996094 197.105469 243.738281 196.191406 243.738281 L 185.3125 243.738281 L 181.746094 234.691406 L 174.753906 259.875 " fill-opacity="1" fill-rule="nonzero"/><path fill="#ffffff" d="M 154.527344 243.738281 L 148.449219 243.738281 C 147.535156 243.738281 146.796875 242.996094 146.796875 242.082031 C 146.796875 241.175781 147.535156 240.433594 148.449219 240.433594 L 154.527344 240.433594 C 155.441406 240.433594 156.179688 241.175781 156.179688 242.082031 C 156.179688 242.996094 155.441406 243.738281 154.527344 243.738281 " fill-opacity="1" fill-rule="nonzero"/><path fill="#ffffff" d="M 142.25 243.738281 L 136.167969 243.738281 C 135.257812 243.738281 134.519531 242.996094 134.519531 242.082031 C 134.519531 241.175781 135.257812 240.433594 136.167969 240.433594 L 142.25 240.433594 C 143.160156 240.433594 143.898438 241.175781 143.898438 242.082031 C 143.898438 242.996094 143.160156 243.738281 142.25 243.738281 " fill-opacity="1" fill-rule="nonzero"/></svg>