<?xml version="1.0" encoding="utf-8"?>
<svg viewBox="0 0 242.027 214.273" xmlns="http://www.w3.org/2000/svg">
  <defs>
    <clipPath id="clippath0" transform="">
      <path d="M 360.103 374.462 L 357.414 369.891 L 368.292 363.694 L 463.559 309.484 C 463.554 311.142 463.779 313.789 465.16 315.356 L 465.16 315.356 C 465.909 316.207 467.457 316.719 469.416 317.366 L 469.416 317.366 C 472.488 318.382 476.311 319.646 476.464 322.139 L 476.464 322.139 C 476.566 323.802 472.109 330.862 468.529 336.536 L 468.529 336.536 C 464.853 342.361 461.051 348.384 459.508 352.264 L 459.508 352.264 C 458.602 354.543 460.179 357.844 461.57 360.759 L 461.57 360.759 C 462.073 361.814 462.551 362.812 462.784 363.526 L 462.784 363.526 C 463.313 365.15 461.662 373.153 459.284 381.771 L 459.284 381.771 L 432.811 396.852 C 425.263 401.147 416.967 403.184 408.649 403.185 L 408.649 403.185 C 389.825 403.187 370.872 392.758 360.103 374.462" style="fill: none; clip-rule: nonzero;"/>
    </clipPath>
    <linearGradient id="shading0" gradientUnits="userSpaceOnUse" x1="0" y1="0" x2="1" y2="0">
      <stop offset="0" style="stop-color: rgb(55, 121, 193);"/>
      <stop offset="0.1" style="stop-color: rgb(51, 111, 184);"/>
      <stop offset="0.2" style="stop-color: rgb(46, 102, 176);"/>
      <stop offset="0.3" style="stop-color: rgb(42, 93, 169);"/>
      <stop offset="0.4" style="stop-color: rgb(39, 85, 161);"/>
      <stop offset="0.5" style="stop-color: rgb(35, 76, 154);"/>
      <stop offset="0.6" style="stop-color: rgb(32, 68, 147);"/>
      <stop offset="0.7" style="stop-color: rgb(29, 60, 141);"/>
      <stop offset="0.8" style="stop-color: rgb(26, 53, 135);"/>
      <stop offset="0.9" style="stop-color: rgb(23, 46, 129);"/>
      <stop offset="1" style="stop-color: rgb(21, 39, 124);"/>
    </linearGradient>
    <clipPath id="clippath1" transform="">
      <path d="M 464.915 362.831 C 464.636 361.976 464.129 360.916 463.594 359.793 L 463.594 359.793 C 462.52 357.542 461.047 354.461 461.592 353.093 L 461.592 353.093 C 463.057 349.405 466.803 343.471 470.425 337.732 L 470.425 337.732 C 475.647 329.458 478.84 324.272 478.702 322.003 L 478.702 322.003 C 478.456 317.994 473.638 316.4 470.12 315.238 L 470.12 315.238 C 468.814 314.806 467.19 314.27 466.843 313.875 L 466.843 313.875 C 465.754 312.639 465.743 309.612 465.836 308.428 L 465.836 308.428 C 465.875 308.335 465.922 308.219 465.965 308.114 L 465.965 308.114 L 474.511 303.251 C 498.891 290.779 530.19 300.944 545.323 326.654 L 545.323 326.654 L 548.012 331.223 L 461.993 380.228 C 464.143 372.154 465.567 364.831 464.915 362.831" style="fill: none; clip-rule: nonzero;"/>
    </clipPath>
    <linearGradient id="shading1" gradientUnits="userSpaceOnUse" x1="0" y1="0" x2="1" y2="0">
      <stop offset="0" style="stop-color: rgb(55, 121, 193);"/>
      <stop offset="0.1" style="stop-color: rgb(51, 111, 184);"/>
      <stop offset="0.2" style="stop-color: rgb(46, 102, 176);"/>
      <stop offset="0.3" style="stop-color: rgb(42, 93, 169);"/>
      <stop offset="0.4" style="stop-color: rgb(39, 85, 161);"/>
      <stop offset="0.5" style="stop-color: rgb(35, 76, 154);"/>
      <stop offset="0.6" style="stop-color: rgb(32, 68, 147);"/>
      <stop offset="0.7" style="stop-color: rgb(29, 60, 141);"/>
      <stop offset="0.8" style="stop-color: rgb(26, 53, 135);"/>
      <stop offset="0.9" style="stop-color: rgb(23, 46, 129);"/>
      <stop offset="1" style="stop-color: rgb(21, 39, 124);"/>
    </linearGradient>
    <clipPath id="clippath2" transform="">
      <path d="M 310.648 263.165 L 307.958 258.596 L 383.619 215.304 C 385.579 219.343 387.374 223.158 389.035 226.697 L 389.035 226.697 C 398.059 245.94 403.509 257.556 414.911 260.021 L 414.911 260.021 C 415.35 260.07 421.441 260.652 427.47 260.155 L 427.47 260.155 L 378.939 287.77 C 372.625 290.551 365.913 291.883 359.187 291.884 L 359.187 291.884 C 340.366 291.884 321.415 281.46 310.648 263.165" style="fill: none; clip-rule: nonzero;"/>
    </clipPath>
    <linearGradient id="shading2" gradientUnits="userSpaceOnUse" x1="0" y1="0" x2="1" y2="0">
      <stop offset="0" style="stop-color: rgb(55, 121, 193);"/>
      <stop offset="0.1" style="stop-color: rgb(51, 111, 184);"/>
      <stop offset="0.2" style="stop-color: rgb(46, 102, 176);"/>
      <stop offset="0.3" style="stop-color: rgb(42, 93, 169);"/>
      <stop offset="0.4" style="stop-color: rgb(39, 85, 161);"/>
      <stop offset="0.5" style="stop-color: rgb(35, 76, 154);"/>
      <stop offset="0.6" style="stop-color: rgb(32, 68, 147);"/>
      <stop offset="0.7" style="stop-color: rgb(29, 60, 141);"/>
      <stop offset="0.8" style="stop-color: rgb(26, 53, 135);"/>
      <stop offset="0.9" style="stop-color: rgb(23, 46, 129);"/>
      <stop offset="1" style="stop-color: rgb(21, 39, 124);"/>
    </linearGradient>
    <clipPath id="clippath3" transform="">
      <path d="M 415.258 257.809 C 405.067 255.598 399.796 244.362 391.064 225.745 L 391.064 225.745 C 389.382 222.16 387.56 218.288 385.569 214.188 L 385.569 214.188 L 416.912 196.255 C 441.541 182.24 474.094 192.265 489.62 218.646 L 489.62 218.646 L 492.31 223.215 L 478.62 231.05 L 433.09 256.957 C 429.9 257.868 425.742 258.109 422.243 258.109 L 422.243 258.109 C 418.377 258.109 415.317 257.815 415.258 257.809" style="fill: none; clip-rule: nonzero;"/>
    </clipPath>
    <linearGradient id="shading3" gradientUnits="userSpaceOnUse" x1="0" y1="0" x2="1" y2="0">
      <stop offset="0" style="stop-color: rgb(21, 39, 124);"/>
      <stop offset="0.1" style="stop-color: rgb(23, 46, 129);"/>
      <stop offset="0.2" style="stop-color: rgb(26, 53, 135);"/>
      <stop offset="0.3" style="stop-color: rgb(29, 60, 141);"/>
      <stop offset="0.4" style="stop-color: rgb(32, 68, 147);"/>
      <stop offset="0.5" style="stop-color: rgb(35, 76, 154);"/>
      <stop offset="0.6" style="stop-color: rgb(39, 85, 161);"/>
      <stop offset="0.7" style="stop-color: rgb(42, 93, 169);"/>
      <stop offset="0.8" style="stop-color: rgb(46, 102, 176);"/>
      <stop offset="0.9" style="stop-color: rgb(51, 111, 184);"/>
      <stop offset="1" style="stop-color: rgb(55, 121, 193);"/>
    </linearGradient>
    <clipPath id="clippath4" transform="">
      <path d="M 354.71 365.323 C 339.183 338.941 346.562 306.194 371.191 292.18 L 371.191 292.18 L 378.939 287.77 C 380.435 287.113 381.91 286.38 383.357 285.556 L 383.357 285.556 L 427.797 260.128 C 429.984 259.934 432.148 259.595 434.018 259.029 L 434.018 259.029 C 443.487 256.16 450.553 256.19 455.02 259.119 L 455.02 259.119 C 459.463 262.032 460.058 267.132 460.253 268.807 L 460.253 268.807 L 460.301 269.201 C 460.525 270.786 460.145 273.378 459.777 275.885 L 459.777 275.885 C 459.338 278.866 458.886 281.948 459.316 284.039 L 459.316 284.039 C 459.492 284.9 460.399 286.019 461.986 287.922 L 461.986 287.922 C 462.896 289.012 464.417 290.838 464.543 291.395 L 464.543 291.395 C 464.515 294.504 461.551 296.055 461.426 296.121 L 461.426 296.121 L 459.57 297.068 L 461.38 298.097 C 462.85 298.93 465.257 300.791 465.457 302.242 L 465.457 302.242 C 465.527 302.876 464.607 305.584 463.703 307.715 L 463.703 307.715 L 463.62 308.039 C 463.604 308.191 463.565 308.723 463.559 309.422 L 463.559 309.422 L 368.292 363.694 L 357.399 369.893 Z" style="fill: none; clip-rule: nonzero;"/>
    </clipPath>
    <linearGradient id="shading4" gradientUnits="userSpaceOnUse" x1="0" y1="0" x2="1" y2="0">
      <stop offset="0" style="stop-color: rgb(133, 135, 139);"/>
      <stop offset="0.1" style="stop-color: rgb(142, 143, 147);"/>
      <stop offset="0.2" style="stop-color: rgb(151, 152, 155);"/>
      <stop offset="0.3" style="stop-color: rgb(159, 160, 163);"/>
      <stop offset="0.4" style="stop-color: rgb(167, 168, 171);"/>
      <stop offset="0.5" style="stop-color: rgb(176, 177, 179);"/>
      <stop offset="0.6" style="stop-color: rgb(184, 185, 187);"/>
      <stop offset="0.7" style="stop-color: rgb(192, 193, 195);"/>
      <stop offset="0.8" style="stop-color: rgb(200, 201, 203);"/>
      <stop offset="0.9" style="stop-color: rgb(208, 209, 210);"/>
      <stop offset="1" style="stop-color: rgb(216, 217, 218);"/>
    </linearGradient>
    <clipPath id="clippath5" transform="">
      <path d="M 467.68 301.936 C 467.401 299.92 465.39 298.135 463.942 297.09 L 463.942 297.09 C 465.191 296.034 466.761 294.148 466.78 291.337 L 466.78 291.337 C 466.786 290.289 465.849 289.053 463.708 286.486 L 463.708 286.486 C 462.888 285.503 461.648 284.017 461.507 283.568 L 461.507 283.568 C 461.161 281.883 461.586 279 461.995 276.211 L 461.995 276.211 C 462.405 273.424 462.791 270.792 462.521 268.886 L 462.521 268.886 L 462.48 268.547 C 462.254 266.614 461.569 260.732 456.249 257.244 L 456.249 257.244 C 451.233 253.957 443.596 253.822 433.56 256.831 L 433.56 256.831 L 478.62 231.05 L 492.333 223.245 L 495.022 227.815 C 510.55 254.196 503.171 286.943 478.542 300.958 L 478.542 300.958 L 474.511 303.251 C 473.875 303.577 473.241 303.907 472.614 304.263 L 472.614 304.263 L 465.998 308.031 C 466.705 306.314 467.86 303.245 467.68 301.936" style="fill: none; clip-rule: nonzero;"/>
    </clipPath>
    <linearGradient id="shading5" gradientUnits="userSpaceOnUse" x1="0" y1="0" x2="1" y2="0">
      <stop offset="0" style="stop-color: rgb(133, 135, 139);"/>
      <stop offset="0.1" style="stop-color: rgb(142, 143, 147);"/>
      <stop offset="0.2" style="stop-color: rgb(151, 152, 155);"/>
      <stop offset="0.3" style="stop-color: rgb(159, 160, 163);"/>
      <stop offset="0.4" style="stop-color: rgb(167, 168, 171);"/>
      <stop offset="0.5" style="stop-color: rgb(176, 177, 179);"/>
      <stop offset="0.6" style="stop-color: rgb(184, 185, 187);"/>
      <stop offset="0.7" style="stop-color: rgb(192, 193, 195);"/>
      <stop offset="0.8" style="stop-color: rgb(200, 201, 203);"/>
      <stop offset="0.9" style="stop-color: rgb(208, 209, 210);"/>
      <stop offset="1" style="stop-color: rgb(216, 217, 218);"/>
    </linearGradient>
    <clipPath id="clippath6" transform="">
      <path d="M 0 595.276 L 841.89 595.276 L 841.89 0 L 0 0 Z" style="fill: none; clip-rule: nonzero;"/>
    </clipPath>
  </defs>
  <g transform="matrix(1, 0, 0, -1, -192.97299, 477.358272)">
    <g transform="matrix(1, 0, 0, 1, -114.170441, 72.860046)">
      <path d="M 360.103 374.462 L 357.414 369.891 L 368.292 363.694 L 463.559 309.484 C 463.554 311.142 463.779 313.789 465.16 315.356 L 465.16 315.356 C 465.909 316.207 467.457 316.719 469.416 317.366 L 469.416 317.366 C 472.488 318.382 476.311 319.646 476.464 322.139 L 476.464 322.139 C 476.566 323.802 472.109 330.862 468.529 336.536 L 468.529 336.536 C 464.853 342.361 461.051 348.384 459.508 352.264 L 459.508 352.264 C 458.602 354.543 460.179 357.844 461.57 360.759 L 461.57 360.759 C 462.073 361.814 462.551 362.812 462.784 363.526 L 462.784 363.526 C 463.313 365.15 461.662 373.153 459.284 381.771 L 459.284 381.771 L 432.811 396.852 C 425.263 401.147 416.967 403.184 408.649 403.185 L 408.649 403.185 C 389.825 403.187 370.872 392.758 360.103 374.462" style="fill: none;"/>
    </g>
    <g style="clip-path: url(#clippath0);" transform="matrix(1, 0, 0, 1, -114.170441, 72.860046)">
      <g transform="matrix(119.0518723 0 0 -119.0518723 357.4138489 356.3341675)">
        <rect x="-3.0021690713048956" y="-2.0070396868508547" width="7.07162334984966" height="5.000139758406807" style="fill: url(#shading0);"/>
      </g>
    </g>
    <g transform="matrix(1, 0, 0, 1, -114.170441, 72.860046)">
      <path d="M 464.915 362.831 C 464.636 361.976 464.129 360.916 463.594 359.793 L 463.594 359.793 C 462.52 357.542 461.047 354.461 461.592 353.093 L 461.592 353.093 C 463.057 349.405 466.803 343.471 470.425 337.732 L 470.425 337.732 C 475.647 329.458 478.84 324.272 478.702 322.003 L 478.702 322.003 C 478.456 317.994 473.638 316.4 470.12 315.238 L 470.12 315.238 C 468.814 314.806 467.19 314.27 466.843 313.875 L 466.843 313.875 C 465.754 312.639 465.743 309.612 465.836 308.428 L 465.836 308.428 C 465.875 308.335 465.922 308.219 465.965 308.114 L 465.965 308.114 L 474.511 303.251 C 498.891 290.779 530.19 300.944 545.323 326.654 L 545.323 326.654 L 548.012 331.223 L 461.993 380.228 C 464.143 372.154 465.567 364.831 464.915 362.831" style="fill: none;"/>
    </g>
    <g style="clip-path: url(#clippath1);" transform="matrix(1, 0, 0, 1, -114.170441, 72.860046)">
      <g transform="matrix(86.5369034 0 0 -86.5369034 461.4750977 339.0833435)">
        <rect x="-5.332697145019404" y="-2.960501779406171" width="9.728681833096422" height="6.87886874399067" style="fill: url(#shading1);"/>
      </g>
    </g>
    <g transform="matrix(1, 0, 0, 1, -114.170441, 72.860046)">
      <path d="M 310.648 263.165 L 307.958 258.596 L 383.619 215.304 C 385.579 219.343 387.374 223.158 389.035 226.697 L 389.035 226.697 C 398.059 245.94 403.509 257.556 414.911 260.021 L 414.911 260.021 C 415.35 260.07 421.441 260.652 427.47 260.155 L 427.47 260.155 L 378.939 287.77 C 372.625 290.551 365.913 291.883 359.187 291.884 L 359.187 291.884 C 340.366 291.884 321.415 281.46 310.648 263.165" style="fill: none;"/>
    </g>
    <g style="clip-path: url(#clippath2);" transform="matrix(1, 0, 0, 1, -114.170441, 72.860046)">
      <g transform="matrix(119.5121765 0 0 -119.5121765 307.958374 253.5940094)">
        <rect x="-2.5767949594659085" y="-2.858972203556179" width="7.0443868119161905" height="4.980881592429204" style="fill: url(#shading2);"/>
      </g>
    </g>
    <g transform="matrix(1, 0, 0, 1, -114.170441, 72.860046)">
      <path d="M 415.258 257.809 C 405.067 255.598 399.796 244.362 391.064 225.745 L 391.064 225.745 C 389.382 222.16 387.56 218.288 385.569 214.188 L 385.569 214.188 L 416.912 196.255 C 441.541 182.24 474.094 192.265 489.62 218.646 L 489.62 218.646 L 492.31 223.215 L 478.62 231.05 L 433.09 256.957 C 429.9 257.868 425.742 258.109 422.243 258.109 L 422.243 258.109 C 418.377 258.109 415.317 257.815 415.258 257.809" style="fill: none;"/>
    </g>
    <g style="clip-path: url(#clippath3);" transform="matrix(1, 0, 0, 1, -114.170441, 72.860046)">
      <g transform="matrix(106.7407455 0 0 -106.7407455 385.569397 224.0153351)">
        <rect x="-3.6122044603857484" y="-3.4781531940865076" width="7.887241147289908" height="5.576839446001434" style="fill: url(#shading3);"/>
      </g>
    </g>
    <g transform="matrix(1, 0, 0, 1, -114.170441, 72.860046)">
      <path d="M 354.71 365.323 C 339.183 338.941 346.562 306.194 371.191 292.18 L 371.191 292.18 L 378.939 287.77 C 380.435 287.113 381.91 286.38 383.357 285.556 L 383.357 285.556 L 427.797 260.128 C 429.984 259.934 432.148 259.595 434.018 259.029 L 434.018 259.029 C 443.487 256.16 450.553 256.19 455.02 259.119 L 455.02 259.119 C 459.463 262.032 460.058 267.132 460.253 268.807 L 460.253 268.807 L 460.301 269.201 C 460.525 270.786 460.145 273.378 459.777 275.885 L 459.777 275.885 C 459.338 278.866 458.886 281.948 459.316 284.039 L 459.316 284.039 C 459.492 284.9 460.399 286.019 461.986 287.922 L 461.986 287.922 C 462.896 289.012 464.417 290.838 464.543 291.395 L 464.543 291.395 C 464.515 294.504 461.551 296.055 461.426 296.121 L 461.426 296.121 L 459.57 297.068 L 461.38 298.097 C 462.85 298.93 465.257 300.791 465.457 302.242 L 465.457 302.242 C 465.527 302.876 464.607 305.584 463.703 307.715 L 463.703 307.715 L 463.62 308.039 C 463.604 308.191 463.565 308.723 463.559 309.422 L 463.559 309.422 L 368.292 363.694 L 357.399 369.893 Z" style="fill: none;"/>
    </g>
    <g style="clip-path: url(#clippath4);" transform="matrix(1, 0, 0, 1, -114.170441, 72.860046)">
      <g transform="matrix(118.8804932 0 0 -118.8804932 346.5808105 313.3962097)">
        <rect x="-2.9153715733406793" y="-2.3711189507413652" width="7.081817860425901" height="5.007348001143723" style="fill: url(#shading4);"/>
      </g>
    </g>
    <g transform="matrix(1, 0, 0, 1, -114.170441, 72.860046)">
      <path d="M 467.68 301.936 C 467.401 299.92 465.39 298.135 463.942 297.09 L 463.942 297.09 C 465.191 296.034 466.761 294.148 466.78 291.337 L 466.78 291.337 C 466.786 290.289 465.849 289.053 463.708 286.486 L 463.708 286.486 C 462.888 285.503 461.648 284.017 461.507 283.568 L 461.507 283.568 C 461.161 281.883 461.586 279 461.995 276.211 L 461.995 276.211 C 462.405 273.424 462.791 270.792 462.521 268.886 L 462.521 268.886 L 462.48 268.547 C 462.254 266.614 461.569 260.732 456.249 257.244 L 456.249 257.244 C 451.233 253.957 443.596 253.822 433.56 256.831 L 433.56 256.831 L 478.62 231.05 L 492.333 223.245 L 495.022 227.815 C 510.55 254.196 503.171 286.943 478.542 300.958 L 478.542 300.958 L 474.511 303.251 C 473.875 303.577 473.241 303.907 472.614 304.263 L 472.614 304.263 L 465.998 308.031 C 466.705 306.314 467.86 303.245 467.68 301.936" style="fill: none;"/>
    </g>
    <g style="clip-path: url(#clippath5);" transform="matrix(1, 0, 0, 1, -114.170441, 72.860046)">
      <g transform="matrix(50.8847427 -7.1303463 -7.1303463 -50.8847427 449.7330627 269.7627869)">
        <rect x="-9.54720799429517" y="-7.333009768021738" width="17.83413509549851" height="13.746997752388431" style="fill: url(#shading5);"/>
      </g>
    </g>
    <g style="clip-path: url(#clippath6);" transform="matrix(1, 0, 0, 1, -114.170441, 72.860046)">
      <g transform="translate(462.7832 363.5261)">
        <path d="M 0 0 C -0.232 -0.715 -0.709 -1.712 -1.212 -2.768 C -2.604 -5.681 -4.181 -8.983 -3.274 -11.262 C -1.732 -15.142 2.069 -21.165 5.746 -26.99 C 9.326 -32.664 13.783 -39.724 13.681 -41.387 C 13.528 -43.88 9.705 -45.144 6.633 -46.16 C 4.674 -46.807 3.126 -47.319 2.377 -48.169 C 0.996 -49.736 0.771 -52.384 0.776 -54.042 L 3.182 -55.412 C 3.139 -55.308 3.092 -55.19 3.053 -55.098 C 2.96 -53.915 2.97 -50.887 4.059 -49.651 C 4.407 -49.256 6.032 -48.72 7.336 -48.288 C 10.854 -47.125 15.673 -45.532 15.918 -41.523 C 16.057 -39.254 12.864 -34.068 7.642 -25.793 C 4.02 -20.055 0.274 -14.121 -1.191 -10.433 C -1.735 -9.065 -0.264 -5.984 0.81 -3.733 C 1.346 -2.61 1.853 -1.549 2.132 -0.694 C 2.784 1.305 1.36 8.628 -0.79 16.701 L -3.5 18.245 C -1.121 9.627 0.53 1.624 0 0" style="fill: rgb(255, 255, 255); fill-opacity: 1;"/>
      </g>
    </g>
    <g style="clip-path: url(#clippath6);" transform="matrix(1, 0, 0, 1, -114.170441, 72.860046)">
      <g transform="translate(415.2583 257.8093)">
        <path d="M 0 0 C 0.112 0.011 11.117 1.066 17.832 -0.853 L 12.212 2.345 C 6.183 2.843 0.092 2.261 -0.348 2.211 C -11.75 -0.253 -17.199 -11.869 -26.224 -31.112 C -27.884 -34.651 -29.68 -38.467 -31.639 -42.505 L -29.689 -43.621 C -27.699 -39.521 -25.876 -35.65 -24.194 -32.064 C -15.462 -13.447 -10.192 -2.211 0 0" style="fill: rgb(255, 255, 255); fill-opacity: 1;"/>
      </g>
    </g>
    <g style="clip-path: url(#clippath6);" transform="matrix(1, 0, 0, 1, -114.170441, 72.860046)">
      <g transform="translate(463.6201 308.0398)">
        <path d="M 0 0 L 0.083 -0.325 C 0.987 -2.456 1.907 -5.164 1.837 -5.797 C 1.637 -7.249 -0.77 -9.11 -2.241 -9.942 L -4.05 -10.972 L -2.195 -11.919 C -2.069 -11.984 0.896 -13.535 0.923 -16.645 C 0.797 -17.202 -0.724 -19.027 -1.634 -20.118 C -3.222 -22.021 -4.127 -23.139 -4.304 -24 C -4.734 -26.092 -4.281 -29.174 -3.843 -32.154 C -3.475 -34.662 -3.095 -37.254 -3.319 -38.839 L -3.367 -39.232 C -3.562 -40.908 -4.157 -46.007 -8.6 -48.92 C -13.067 -51.85 -20.133 -51.88 -29.603 -49.011 C -31.472 -48.444 -33.636 -48.106 -35.823 -47.912 L -30.06 -51.209 C -20.024 -54.217 -12.387 -54.083 -7.371 -50.795 C -2.051 -47.308 -1.365 -41.426 -1.14 -39.492 L -1.099 -39.154 C -0.83 -37.248 -1.216 -34.616 -1.625 -31.829 C -2.035 -29.04 -2.459 -26.157 -2.113 -24.472 C -1.972 -24.023 -0.732 -22.537 0.088 -21.554 C 2.229 -18.986 3.166 -17.751 3.16 -16.703 C 3.141 -13.892 1.571 -12.006 0.322 -10.95 C 1.77 -9.905 3.781 -8.12 4.059 -6.104 C 4.24 -4.794 3.084 -1.726 2.378 -0.008 L -0.061 1.382 C -0.056 0.683 -0.016 0.151 0 0" style="fill: rgb(255, 255, 255); fill-opacity: 1;"/>
      </g>
    </g>
    <g style="clip-path: url(#clippath6);" transform="matrix(1, 0, 0, 1, -114.170441, 72.860046)">
      <g transform="translate(378.6401 310.0842)">
        <path d="M 0 0 C -3.815 0.739 -5.699 4.318 -6.483 6.386 C -6.975 7.684 -8.042 9.262 -9.486 10.829 C -11.306 12.803 -13.368 15.04 -16.418 21.351 C -18.591 25.844 -18.564 33.537 -16.36 38.149 C -14.896 41.214 -12.422 43.25 -10.595 44.132 C -9.913 44.462 -9.232 44.659 -8.57 44.717 C -8.075 44.762 -7.487 44.719 -6.821 44.59 C -1.72 43.602 8.611 37.133 9.409 32.753 C 9.527 32.064 8.855 31.851 8.564 32.439 C 6.813 35.422 -2.413 41.691 -7.163 42.611 C -7.643 42.704 -8.057 42.735 -8.394 42.705 C -8.816 42.667 -9.261 42.537 -9.715 42.317 C -11.392 41.507 -13.024 39.639 -14.194 37.193 C -15.507 34.445 -16.079 31.25 -15.804 28.196 C -15.623 26.161 -15.076 24.191 -14.181 22.341 C -11.326 16.434 -8.795 13.688 -6.948 11.682 C -5.559 10.177 -4.464 8.989 -3.778 7.178 C -2.678 4.275 -0.411 2.415 2.777 1.798 C 3.485 1.661 4.24 1.586 5.02 1.576 C 5.999 1.63 6.207 1.07 5.189 0.696 C 3.334 -0.074 1.589 -0.308 0 0" style="fill: rgb(255, 255, 255); fill-opacity: 1;"/>
      </g>
    </g>
  </g>
</svg>